<?xml version="1.0" encoding="UTF-8"?>
<svg id="_图层_2" data-name="图层 2" xmlns="http://www.w3.org/2000/svg" xmlns:xlink="http://www.w3.org/1999/xlink" viewBox="0 0 271.37 271.17">
  <defs>
    <style>
      .cls-1, .cls-2, .cls-3, .cls-4, .cls-5, .cls-6, .cls-7, .cls-8, .cls-9 {
        stroke-miterlimit: 10;
      }

      .cls-1, .cls-2, .cls-4, .cls-5, .cls-6, .cls-10, .cls-7, .cls-8, .cls-9 {
        stroke: #231815;
      }

      .cls-1, .cls-2, .cls-11 {
        fill: none;
      }

      .cls-1, .cls-8 {
        stroke-width: 5px;
      }

      .cls-12 {
        fill: #f0f0f0;
      }

      .cls-13 {
        fill: #2d1f1b;
      }

      .cls-14 {
        fill: #595959;
        opacity: .27;
      }

      .cls-15 {
        fill: #f4a116;
      }

      .cls-16 {
        fill: #dbdbdb;
      }

      .cls-3 {
        fill: #212222;
        stroke: #5c689b;
      }

      .cls-17 {
        fill: #f5a824;
      }

      .cls-18 {
        fill: #fffbf9;
      }

      .cls-19 {
        clip-path: url(#clippath-2);
      }

      .cls-20 {
        fill: #fffbf8;
      }

      .cls-21 {
        fill: #dedede;
      }

      .cls-4 {
        fill: #5a6a9e;
      }

      .cls-4, .cls-6, .cls-9 {
        stroke-width: 2px;
      }

      .cls-22 {
        clip-path: url(#clippath-1);
      }

      .cls-5 {
        stroke-width: 4px;
      }

      .cls-5, .cls-8 {
        fill: #f5c1b4;
      }

      .cls-6 {
        fill: #45527b;
      }

      .cls-10 {
        fill: #fff;
        stroke-linecap: round;
        stroke-linejoin: round;
        stroke-width: 3px;
      }

      .cls-23 {
        fill: #fde9e4;
      }

      .cls-7 {
        fill: #aeadad;
      }

      .cls-24 {
        fill: #f5c51d;
      }

      .cls-25 {
        clip-path: url(#clippath);
      }

      .cls-9 {
        fill: #acb5cb;
      }

      .cls-26 {
        fill: #ec691a;
      }

      .cls-27 {
        fill: #ec7474;
      }

      .cls-28 {
        clip-path: url(#clippath-3);
      }

      .cls-29 {
        fill: #ee7734;
      }

      .cls-30 {
        opacity: .21;
      }

      .cls-31 {
        fill: #f5e44e;
      }

      .cls-32 {
        fill: #c5cfea;
      }

      .cls-33 {
        fill: #231815;
      }

      .cls-34 {
        fill: #f8f8f8;
      }

      .cls-35 {
        fill: #fffefe;
      }
    </style>
    <clipPath id="clippath">
      <rect class="cls-11" x="11.43" y="12.69" width="251" height="248.36" rx="18.84" ry="18.84"/>
    </clipPath>
    <clipPath id="clippath-1">
      <rect class="cls-11" width="260.78" height="260.78" rx="21.15" ry="21.15"/>
    </clipPath>
    <clipPath id="clippath-2">
      <path class="cls-11" d="M261.21,154.87l-35.34,17.34c-1.87,4.92-6.28,8.91-12.03,10.2-5.62,1.27-11.18-.34-14.99-3.81l-47.79,2.68c-2.28,.15-4.32-1.43-4.74-3.67l-1.19-6.37c-.5-2.66,1.43-5.16,4.14-5.34l28.51-1.89c5.82-.39,11.61-1.08,17.34-2.07,1.95-4.75,6.29-8.57,11.9-9.83,5.23-1.18,10.41,.13,14.17,3.11,5.28-1.82,10.48-3.91,15.57-6.27l20.43-9.45c.19,.9,.39,1.8,.63,2.7,1.7,4.06,2.49,8.39,3.39,12.67Z"/>
    </clipPath>
    <clipPath id="clippath-3">
      <rect class="cls-11" x="10.6" y="10.39" width="260.78" height="260.78" rx="19.68" ry="19.68"/>
    </clipPath>
  </defs>
  <g id="_图层_1-2" data-name="图层 1">
    <rect class="cls-24" x="1.23" y="2.12" width="260.78" height="260.78" rx="19.68" ry="19.68"/>
    <g class="cls-25">
      <ellipse class="cls-15" cx="213.2" cy="201.08" rx="98.42" ry="97.39"/>
      <ellipse class="cls-15" cx="116.99" cy="258.53" rx="28.75" ry="28.45"/>
    </g>
    <circle class="cls-15" cx="88.65" cy="209.64" r="19.24"/>
    <circle class="cls-15" cx="113.35" cy="159.66" r="5.46"/>
    <circle class="cls-15" cx="218.19" cy="100.2" r="18.38"/>
    <circle class="cls-15" cx="150.4" cy="109.97" r="6.32"/>
    <circle class="cls-15" cx="97.26" cy="95.32" r="4.31"/>
    <circle class="cls-15" cx="38.38" cy="145.01" r="4.02"/>
    <circle class="cls-15" cx="48.72" cy="192.12" r="4.6"/>
    <circle class="cls-15" cx="36.66" cy="240.95" r="2.87"/>
    <circle class="cls-15" cx="132.59" cy="151.33" r="18.38"/>
    <circle class="cls-15" cx="251.8" cy="70.62" r="6.61"/>
    <circle class="cls-15" cx="191.48" cy="64.3" r="4.88"/>
    <circle class="cls-15" cx="148.1" cy="87.56" r="10.34"/>
    <circle class="cls-15" cx="168.79" cy="126.05" r="5.74"/>
    <circle class="cls-15" cx="110.48" cy="129.21" r="14.65"/>
    <circle class="cls-15" cx="71.7" cy="144.44" r="4.02"/>
    <circle class="cls-15" cx="77.73" cy="168.28" r="4.88"/>
    <circle class="cls-15" cx="47.57" cy="81.24" r="14.36"/>
    <circle class="cls-15" cx="107.89" cy="59.99" r="3.45"/>
    <circle class="cls-15" cx="132.31" cy="99.91" r="2.59"/>
    <circle class="cls-15" cx="182.29" cy="120.59" r="14.07"/>
    <g class="cls-22">
      <ellipse class="cls-5" cx="258.31" cy="136.42" rx="16.68" ry="12.5" transform="translate(42.94 333.77) rotate(-70.34)"/>
      <ellipse class="cls-5" cx="147.97" cy="162.74" rx="12.5" ry="16.68" transform="translate(-71.93 157.9) rotate(-46.46)"/>
      <path class="cls-5" d="M248.71,288.11l-71.48,16.69s-3.12,5.71-3.58-28.27c-.46-33.98,32.12-83.67,32.12-83.67l-2.54-10.9,16.64-3.88,2.54,10.9s51.22,30.12,65.85,60.79,9.3,26.93,9.3,26.93l-71.48,16.69"/>
      <path class="cls-8" d="M140.4,134.81c-9.98-41.9,20.7-51.77,47.5-58.03,26.9-6.28,58.15-13.11,68.5,30.34,10.35,43.45-4.5,65.01-43.62,74.18-39.12,9.17-62.41-4.6-72.39-46.5Z"/>
      <path class="cls-2" d="M140.27,162.98s.69,1.36,4.28,1.29c3.59-.07-.72,2.78-.34,4.76"/>
      <path class="cls-2" d="M264.95,133.87s-.01,1.52-3.26,3.06c-3.25,1.53,1.88,2.17,2.41,4.12"/>
      <path class="cls-27" d="M269.5,113.48c2.95,5.11,6.18,10.05,9.68,14.81,.4,.54,1.08,.81,1.71,.45,.54-.31,.85-1.16,.45-1.71-3.5-4.75-6.73-9.69-9.68-14.81-.8-1.39-2.97-.14-2.16,1.26h0Z"/>
      <path class="cls-7" d="M138.15,117.44s4.71,36.3,8.48,40.49c3.77,4.19,2.07-40.65,8.24-49.14,6.17-8.49-15.7-7.44-16.72,8.64Z"/>
      <path class="cls-7" d="M249.39,88.89s10.73,35,9.03,40.37-18.7-36.15-27.83-41.32c-9.13-5.17,11.21-13.27,18.8,.95Z"/>
      <path class="cls-21" d="M260.8,224.43c.9,10.37,2.06,20.71,3.46,31.02,.22,1.59,2.62,.91,2.41-.66-1.37-10.09-2.49-20.21-3.38-30.35-.14-1.59-2.64-1.61-2.5,0h0Z"/>
      <path class="cls-10" d="M215.7,194.8c7.12-1.52,10.69-4.72,12.43-7.12,1.24-1.71,3.37-2.54,5.41-1.99l26.78,7.2,21.26,78.29-117.57-.92,3.97-22.41c3.45-19.46,10.75-38.04,21.47-54.64h0c.88-1.36,2.59-1.92,4.1-1.31,4.36,1.74,13.62,4.73,22.16,2.91Z"/>
      <path class="cls-12" d="M187.27,228.25l-2.98,32.41c-.03,.32,.25,.61,.65,.7l11.28,2.27c.62,.13,1.21-.29,1.09-.77l-8.3-34.68c-.19-.78-1.68-.71-1.75,.07Z"/>
      <path class="cls-12" d="M253.64,211.47l20.69,25.05c.21,.25,.55,.32,.83,.17l7.59-4.06c.42-.23,.45-.82,.06-1.11l-28.28-20.98c-.63-.47-1.39,.33-.88,.94Z"/>
      <path class="cls-1" d="M140.6,134.23c-9.98-41.9,20.7-51.77,47.5-58.03,26.9-6.28,58.15-13.11,68.5,30.34,10.35,43.45-4.5,65.01-43.62,74.18-39.12,9.17-62.41-4.6-72.39-46.5Z"/>
      <g>
        <path class="cls-13" d="M122.34,96.97c-1.87,7.76-7.95,11.16-16.48,8.93,5.89,1.63,12.05,2.72,18.34,3.25-.66,5.38-6.17,10.49-12.53,11.62,5.24,.08,10.57-.41,15.8-1.47,.56,4.82,2.87,9.34,6.55,12.81-.13-6.74,1.01-13.6,3.38-20.27,.21-.59,.45-1.2,.98-1.65,.68-.57,1.67-.71,2.58-.83,4.66-.58,9.4-1.17,13.91-.57s8.83,2.56,10.68,5.97c-1.26-3.7-2.53-7.4-3.79-11.09-.86-2.51-1.45-5.77,1.12-7.61,1.98-1.42,4.78-1.14,7.09-.62,6.54,1.48,12.51,4.27,17.32,8.1,.15-2.7,.3-5.41,.46-8.11,.11-1.96,.25-4.01,1.39-5.81,2.73-4.33,10.89-4.96,13.99-1.35,3.1,3.61,.79,9.72-4.18,12.3,4.67-1.22,9.54-2.53,13.22-5.4,3.67-2.87,5.62-7.82,2.97-10.89,3.98,1.01,6.45,4.12,9.95,5.88,5.38,2.7,13.3,1.74,18.39-2.23-1.62-2.51-3.54-4.85-5.73-7.01,4.8,1.15,9.32,2.91,13.39,5.2-1.61-5.13-.48-11.06,3.04-15.96,.65-.9,1.41-1.8,2.47-2.37,2.54-1.38,5.59-.39,8.4-.09,5.91,.62,12.76-2.71,14.82-7.68,1.04-2.5-.32-6.05-3.36-5.43-.99,.2-1.82,.82-2.67,1.33-6.56,3.94-14.91,2.14-22.24,.88-6.61-1.14-13.45-1.68-19.89-3.23-6.44-1.55-12.63-4.26-16.28-8.86-1.39-1.74-2.39-3.73-4.01-5.31s-4.12-2.75-6.73-2.24c2.83,5.68-2.1,13.15-9.02,16.48-6.92,3.33-15.03,3.4-22.44,2.52-9.38-1.11-18.37-3.59-26.45-7.3,5.03,3.69,7.73,9.5,7.16,15.44-.14,1.46-.48,2.97-1.42,4.27-1.18,1.64-3.16,2.79-5.15,3.71-8.61,3.99-18.87,4.85-27.41,2.29-1.68-.5-3.55-1.93-2.43-3.27-3.39,2.59-4.78,6.87-3.32,10.16,.48,1.09,1.25,2.09,1.41,3.28,.4,2.93-3.13-.06-6.2,1.73-3.24,1.9-8.17,3.44-10.15,.94,1.74,3.28,3.06,4.71,7.49,4.76,7.64-2.6,2.81-4.79,11.43-4.62,1.48,.03,2.8,1.34,3.76,2.2,1.57,1.41,2.92,2.5,1.37,4.2-1.55,1.7,1.23,1.99-.99,3.01Z"/>
        <path class="cls-33" d="M119.93,96.3c-.73,2.92-2.12,5.36-4.59,6.71-1.04,.57-2.51,.95-3.72,1.03-1.74,.1-3.41-.13-5.09-.55-3.12-.79-4.44,3.97-1.33,4.82,6.22,1.7,12.58,2.78,19,3.34l-2.41-3.16c-.76,5.34-5.76,8.91-10.78,9.87-2.83,.54-2.08,4.88,.66,4.91,5.53,.07,11.04-.48,16.47-1.56l-3.16-2.41c.71,5.61,3.19,10.64,7.28,14.58,1.53,1.47,4.3,.44,4.27-1.77-.06-4.13,.32-8.23,1.2-12.27,.47-2.17,1.07-4.32,1.78-6.43,.11-.33,.2-.7,.35-1.02,.2-.44,.03-.27,.6-.42,.87-.23,1.8-.27,2.69-.37,4.08-.48,8.39-.97,12.46-.17,2.99,.59,6.22,1.82,7.8,4.59,1.37,2.41,5.5,.81,4.57-1.93-1.33-3.9-2.79-7.77-3.99-11.71-.33-1.08-.74-2.49-.27-3.53s1.74-1.32,2.8-1.34c3.4-.05,7.1,1.37,10.19,2.66s6.17,3.03,8.84,5.13c1.7,1.33,4.14,.54,4.27-1.77s.27-4.77,.4-7.16c.1-1.85,.06-3.89,1.1-5.51,.19-.3,.71-.84,1.03-1.07,.48-.34,1.06-.65,1.45-.8,1.4-.54,2.51-.67,4-.58,2.16,.14,4.18,1.34,4.26,3.47,.1,2.64-1.84,5.15-4.34,6.5s-.79,5.28,1.93,4.57c5.36-1.4,11.23-2.94,15.31-6.92,3.69-3.59,5.46-9.26,1.98-13.56l-2.43,4.18c2.61,.71,4.64,2.52,6.81,4.05s4.69,2.72,7.4,3.15c5.54,.89,11.57-.38,16.06-3.81,1.03-.79,1.71-2.18,.9-3.42-1.77-2.71-3.82-5.23-6.12-7.51l-2.43,4.18c4.48,1.1,8.76,2.7,12.79,4.95,1.85,1.03,4.32-.68,3.67-2.82-1.25-4.15-.51-8.52,1.63-12.24,.96-1.66,2.06-3.47,4.15-3.63,2.21-.16,4.39,.58,6.59,.67,4.27,.17,8.66-1.33,12.02-3.94,3.03-2.36,5.81-6.34,4.41-10.35-.73-2.09-2.39-3.67-4.64-3.91-2.57-.26-4.37,1.47-6.56,2.45-3.9,1.75-8.49,1.47-12.62,.91-4.89-.66-9.75-1.6-14.64-2.27s-10.2-1.43-15.1-3c-4.38-1.41-8.89-3.6-11.71-7.38-1.59-2.12-2.84-4.43-4.98-6.07-2.37-1.81-5.15-2.45-8.08-1.98-1.73,.28-2.11,2.37-1.49,3.67,.51,1.08,.6,2.43,.33,3.63-.36,1.62-1.13,3.1-2.14,4.41-2.42,3.17-5.98,5.19-9.75,6.32-8.89,2.66-18.86,1.19-27.72-.92-5.22-1.24-10.33-2.94-15.22-5.16-2.96-1.35-5.1,2.39-2.52,4.32s4.48,4.62,5.39,7.65c.8,2.69,1.3,6.84-.89,9.02-2.41,2.4-6.31,3.58-9.5,4.46-3.61,.99-7.32,1.46-11.07,1.38-1.98-.04-3.94-.23-5.88-.62-.98-.2-1.99-.4-2.93-.73-.14-.05-1.03-.52-1.03-.52-.1,.04,.16,.83,.09,.93,.7-1.02,.29-2.53-.64-3.23-1.07-.8-2.28-.6-3.28,.2-2.54,2.02-4.26,5-4.57,8.24-.14,1.48,.06,2.98,.61,4.36,.33,.82,.84,1.56,1.17,2.38,.06,.15,.1,.43,.18,.53-.27-.29,1.04-1.71,1.6-1.43-.33-.17-1.08-.09-1.47-.14-.62-.08-1.24-.13-1.86-.09-1.7,.12-2.98,.86-4.46,1.59-1.16,.57-2.46,1.06-3.74,1.22-1.13,.14-1.64,.07-2.17-.54-1.92-2.22-5.22,.61-3.93,3.03s2.77,4.34,5.3,5.32c1.28,.49,2.79,.71,4.16,.67,1.52-.03,3.25-.92,4.54-1.7,.81-.49,1.56-1.09,2.21-1.77,.2-.21,.4-.43,.6-.65,.09-.09,.19-.17,.28-.26-.27,.29-.33,.25,0,.05,.41-.24-.18,.04,0,0,.19-.04,.38-.1,.57-.15,.11-.03,.22-.04,.33-.06-.06,0-.35,.04-.03,0,.36-.04,.73-.06,1.09-.07,.65-.02,1.47-.15,2.1,.01,.58,.15,1.12,.72,1.56,1.11,.22,.2,1.51,1.6,1.69,1.53-.18,.07,.48-.76-.15-.27-.35,.27-.59,.83-.75,1.24-.31,.78-.34,1.57-.1,2.38,.08,.26,.21,.71,.42,.93,.26,.28-.14,1.82,.2-1.04,.12-1.01,.48-1.4-.05-1.13-2.88,1.43-.35,5.75,2.52,4.32,1.75-.87,2.63-2.59,1.76-4.43-.03-.07-.19-.3-.18-.37,0-.05,.35,1.82-.06,1.38-.01-.01,.67-.87,.76-1.01,.33-.53,.52-1.12,.59-1.74,.23-2.15-1.26-3.64-2.74-4.97s-3.06-2.7-5.16-2.9c-2.55-.24-5.79-.14-7.84,1.62-.48,.41-.86,.91-1.32,1.34-.07,.07-.55,.46-.32,.28,.21-.16-.3,.19-.39,.25-.57,.36-1.18,.65-1.81,.9-1.21,.47-2.62-.03-3.42-.5-.06-.04-.37-.28-.07-.03-.12-.1-.24-.21-.35-.32s-.56-.66-.41-.46c-.47-.63-.84-1.33-1.21-2.01l-3.93,3.03c2.33,2.69,6.38,2.27,9.4,1.19,.82-.29,1.63-.64,2.41-1.01,.58-.28,1.16-.72,1.77-.9,1.18-.36,2.45,.17,3.66,.14,1.77-.04,3.17-1.21,3.36-2.99,.22-1.99-.88-3.39-1.61-5.12-1.18-2.8,.61-5.68,2.8-7.43l-3.93-3.03c-1.56,2.28-.11,4.85,2,6.11,1.94,1.16,4.46,1.55,6.66,1.88,4.9,.73,9.83,.59,14.69-.35,4.59-.88,9.67-2.46,13.44-5.3,4.15-3.13,4.85-8.2,4.03-13.06-.88-5.17-4.02-9.53-8.15-12.63l-2.52,4.32c9.97,4.54,20.81,7.34,31.75,8.01,9.99,.61,21.19-1.33,27.58-9.79,2.92-3.88,4.14-8.82,2-13.34l-1.49,3.67c4.34-.7,6.51,4.87,8.78,7.48,2.83,3.25,6.7,5.4,10.64,6.97,9.07,3.62,19.21,4,28.76,5.65,4.44,.77,9.02,1.52,13.53,.99,2.31-.27,4.5-.82,6.62-1.81,1-.47,1.89-1.21,2.9-1.64,.33-.14,.55-.22,.85-.17-.34-.06-.05,.08-.02,.12,.1,.11,.27,.49,.3,.88,.05,.71-.13,1.12-.57,1.87-.82,1.38-2.05,2.47-3.41,3.3-3.37,2.05-6.86,2.28-10.67,1.71-2.73-.4-5.56-.6-8.01,.93-2.15,1.34-3.67,3.75-4.77,5.97-2.3,4.64-3.05,9.98-1.54,14.99l3.67-2.82c-4.39-2.44-9.11-4.26-13.98-5.45-2.39-.59-4.24,2.38-2.43,4.18,2,1.99,3.79,4.14,5.34,6.5l.9-3.42c-3.69,2.81-8.67,4.13-13.24,3.11-5-1.11-8.22-5.66-13.17-7.01-2.59-.71-3.92,2.34-2.43,4.18,1.79,2.21-1,5.87-2.96,7.34-3.51,2.63-7.96,3.7-12.13,4.78l1.93,4.57c3.08-1.66,5.61-4.56,6.49-7.98,.82-3.18,.07-6.79-2.54-8.95-4.92-4.08-13.97-2.84-17.29,2.75-1.24,2.09-1.48,4.52-1.62,6.89-.16,2.7-.3,5.41-.46,8.11l4.27-1.77c-3.5-2.75-7.3-4.92-11.44-6.57s-8.67-3.22-12.95-2.5c-2.06,.35-4.05,1.53-5.14,3.35s-1.15,3.99-.78,6.04,1.19,3.99,1.86,5.94c.84,2.47,1.68,4.93,2.53,7.4l4.57-1.93c-3.62-6.34-11.88-7.68-18.53-7.42-2.02,.08-4.03,.28-6.04,.52s-4.19,.22-5.86,1.33-2.29,3.18-2.9,5.07-1.12,3.81-1.53,5.74c-.94,4.39-1.4,8.88-1.33,13.37l4.27-1.77c-3.06-2.94-5.28-6.78-5.81-11.04-.21-1.68-1.42-2.76-3.16-2.41-4.99,.99-10.05,1.44-15.14,1.38l.66,4.91c6.52-1.24,13.3-6.46,14.27-13.36,.24-1.7-.64-3.01-2.41-3.16-5.98-.52-11.89-1.58-17.68-3.16l-1.33,4.82c4.2,1.06,8.77,1.15,12.67-.98,3.67-2,5.9-5.74,6.89-9.7,.78-3.12-4.04-4.45-4.82-1.33Z"/>
      </g>
      <path class="cls-17" d="M176.8,224.17c-3.39,12.43-6.39,24.96-9.01,37.58-.27,1.32,.39,2.7,1.75,3.08,1.24,.34,2.8-.42,3.08-1.75,2.62-12.61,5.62-25.15,9.01-37.58,.85-3.11-3.98-4.44-4.82-1.33h0Z"/>
      <path class="cls-17" d="M190.21,196.61c-2.37,4.85-4.9,9.61-7.6,14.29-.65,1.13-.3,2.79,.9,3.42s2.72,.31,3.42-.9c2.7-4.67,5.23-9.44,7.6-14.29,.57-1.17,.36-2.76-.9-3.42-1.12-.59-2.81-.36-3.42,.9h0Z"/>
    </g>
    <g>
      <path class="cls-26" d="M245.67,224.63c-.9,.24-1.79,.35-2.67,.39-1.88,.08-3.23-.73-3.97-2.49-.71-1.7-1.11-3.47-1.18-5.31-.07-1.87,.77-3.17,2.48-3.9,1.69-.72,3.47-1.12,5.31-1.18,1.86-.06,3.17,.77,3.9,2.48,.72,1.7,1.13,3.47,1.18,5.31,.05,2.03-.9,3.35-2.81,4.04-.74,.27-1.49,.54-2.23,.65Z"/>
      <path class="cls-35" d="M240.64,219.35c-.12-.55-.22-1.11-.38-1.66-.12-.44-.07-.67,.44-.76,1.02-.18,2.02-.46,3.03-.65,1.07-.2,1.58,.11,1.89,1.15,.25,.87,.41,1.78,.64,2.66,.11,.43-.14,.49-.45,.57-.35,.09-.6,.11-.69-.36-.13-.73-.33-1.44-.48-2.16-.14-.7-.55-.91-1.23-.8-1.98,.33-1.98,.32-1.54,2.28,.09,.41,.16,.82,.28,1.22,.14,.46,0,.64-.47,.75-.52,.12-.58-.15-.65-.52-.12-.58-.25-1.15-.38-1.73Z"/>
      <path class="cls-20" d="M246.74,218.03c-.13-.6-.25-1.21-.41-1.8-.12-.42,.03-.57,.43-.65,.35-.06,.6-.12,.7,.35,.25,1.23,.52,2.45,.82,3.67,.11,.46-.13,.53-.47,.62-.38,.1-.59,.05-.67-.39-.1-.61-.26-1.2-.39-1.8Z"/>
      <path class="cls-18" d="M244.02,219.55c.05,.24,.09,.48,.16,.72,.15,.46,.14,.74-.46,.88-.65,.14-.61-.27-.7-.63-.12-.52-.21-1.06-.36-1.57-.14-.46,.05-.59,.46-.69,.42-.09,.66-.04,.71,.43,.03,.29,.12,.57,.19,.86Z"/>
    </g>
    <path class="cls-23" d="M198.07,114.18h0Z"/>
    <path class="cls-23" d="M197.58,114.18c-.17,0-.33,0-.5,.01h0s.5-.01,.5-.01Z"/>
    <rect class="cls-16" x="135.15" y="125.6" width="15.6" height="24.89" rx="4.92" ry="4.92" transform="translate(-35.71 51.04) rotate(-18.03)"/>
    <rect class="cls-16" x="250.48" y="99.26" width="10.53" height="24.89" rx="3.64" ry="3.64" transform="translate(-16.18 48.95) rotate(-10.6)"/>
    <g>
      <rect class="cls-6" x="135.64" y="141.8" width="18.77" height="41.41" rx="4.35" ry="4.35" transform="translate(-54.25 74.58) rotate(-24.44)"/>
      <rect class="cls-9" x="128.68" y="149.89" width="20.68" height="34.12" rx="10.34" ry="10.34" transform="translate(-56.62 72.49) rotate(-24.44)"/>
      <path class="cls-6" d="M208.97,157.93h0s-.45,.11-.45,.11c.29-.07,.45-.11,.45-.11Z"/>
      <path class="cls-6" d="M208.39,158.07c-.22,.05-.51,.12-.84,.2v-.02s.3-.07,.84-.18Z"/>
      <path class="cls-6" d="M254.86,148.33c-.02-2.27-.17-4.53-.23-6.8-1.66-.67-3.22-1.04-4.54-.94-5.35,.41-32.06,8.19-43.62,11.61-11.76,2.63-38.89,8.82-43.76,11.07-6.25,2.86-12.53,20.24-12.53,20.24-.19,.91,1.65,1.82,4.62,1.31,2.97-.52,21.69,2.31,31.26,1.08,7.67-.98,22.81-2.25,27.99-3.52l.84-.22c.32-.08,.74-.19,1.21-.33,5.17-1.41,17.43-7.25,24.61-10.12,4.72-1.89,10.93-5.93,16.18-9.49-1.31-4.46-2-9.09-2.01-13.9Z"/>
      <ellipse class="cls-4" cx="210.3" cy="165.73" rx="21.69" ry="20.43" transform="translate(-31.26 50.23) rotate(-12.69)"/>
      <path class="cls-32" d="M261.47,154.87l-35.34,17.34c-1.87,4.92-6.28,8.91-12.03,10.2-5.62,1.27-11.18-.34-14.99-3.81l-47.79,2.68c-2.28,.15-4.32-1.43-4.74-3.67l-1.19-6.37c-.5-2.66,1.43-5.16,4.14-5.34l28.51-1.89c5.82-.39,11.61-1.08,17.34-2.07,1.95-4.75,6.29-8.57,11.9-9.83,5.23-1.18,10.41,.13,14.17,3.11,5.28-1.82,10.48-3.91,15.57-6.27l20.43-9.45c.19,.9,.39,1.8,.63,2.7,1.7,4.06,2.49,8.39,3.39,12.67Z"/>
      <g class="cls-30">
        <g class="cls-19">
          <path class="cls-31" d="M211.28,192.63c-1.12,.79-3.65,2.9-5.14,1.8-.69-.5-.52-1.75-.48-2.46,.08-1.25,.32-2.5,.58-3.73,1.1-5.24,3.14-10.24,5.56-15,3.89-7.66,9.34-15.58,17.56-19,.76-.32,2.08-1.03,2.94-.77,.09,.03,.2,.19,.25,.34,.08,.21,.11,.58,.08,.99-.19,2.14-2.5,4.19-3.42,6.2-.56,1.23-.35,2.69,.9,3.42,1.08,.63,2.86,.34,3.42-.9,1.31-2.86,3.72-4.98,4.07-8.25,.3-2.8-1.07-5.87-3.98-6.63s-6.29,.9-8.82,2.29-4.75,3.09-6.78,5.02c-4.16,3.95-7.43,8.85-10.08,13.92-3.09,5.9-5.75,12.25-6.84,18.85-.59,3.54-1.04,7.95,2.59,10.06s7.2,.23,10.12-1.82c1.1-.78,1.62-2.19,.9-3.42-.64-1.09-2.31-1.68-3.42-.9h0Z"/>
          <path class="cls-31" d="M229.13,177.3c-.37,3.32-5.18,4.6-7.84,4.88-4.68,.49-9.32-.5-13.91-1.23-4.8-.76-9.77-1.34-14.54-.1-3.82,.99-7.39,3.15-9.73,6.36-1.2,1.66-2.16,3.74-2.1,5.83,.06,2.27,1.25,4.6,3.63,5.11,3.14,.67,4.48-4.15,1.33-4.82-.23-.05-.23-.15-.14-.02l.18,.18c.2,.22,.23,.24,.11,.07-.03,.05-.13-.41-.1-.21-.1-.71,.01-1.09,.29-1.76,.61-1.43,1.71-2.69,2.94-3.62,2.82-2.14,6.39-2.85,9.86-2.84,8.87,.02,17.88,4.04,26.69,1.22,4.26-1.37,7.82-4.41,8.33-9.03,.15-1.34-1.26-2.5-2.5-2.5-1.48,0-2.35,1.15-2.5,2.5h0Z"/>
          <path class="cls-31" d="M173.37,197.41c-1.33-.15-2.35-1.51-2.99-2.56-1.01-1.67-1.59-3.56-2.02-5.45-.94-4.14-.77-8.59,.54-12.63,.82-2.54,2.79-6.14,5.93-5.99,2.94,.14,4.95,3.68,3.01,6.15-.83,1.06-1.04,2.5,0,3.54,.87,.87,2.7,1.07,3.54,0,2.81-3.58,3-8.76-.39-12.09-3.11-3.05-8.05-3.42-11.57-.86s-5.21,6.53-6.02,10.56c-.96,4.74-.8,9.71,.58,14.35s4.1,9.38,9.38,9.98c1.34,.15,2.5-1.26,2.5-2.5,0-1.48-1.15-2.35-2.5-2.5h0Z"/>
          <path class="cls-31" d="M174.74,182.08c1.54,3.8,5.55,4.16,9.16,4.02,2.02-.08,4.04-.33,6.02-.73,1.62-.33,3.4-1.05,5.05-.66,1.31,.3,2.71-.41,3.08-1.75,.35-1.26-.42-2.77-1.75-3.08-3.5-.81-6.86,.72-10.32,1.07-1.62,.16-3.22,.17-4.84,.13-.3-.03-.33-.03-.09,0-.17-.03-.33-.06-.5-.09-.24-.05-.49-.12-.72-.2,.39,.14-.36-.2-.46-.28,.21,.15,.21,.13,0-.07,.11,.07,.17,.18,.18,.3-.51-1.25-1.67-2.13-3.08-1.75-1.19,.33-2.26,1.82-1.75,3.08h0Z"/>
          <path class="cls-31" d="M194.61,184.7c-3.47,3.28-8.86,4.33-13.2,2.2-2.02-.99-3.79-2.5-4.99-4.41-.91-1.44-2.23-4.15-1.01-5.77,1.11-1.47,3.57-.31,4.8,.39,.44,.25,.9,.52,1.3,.84-.04-.03,.5,.47,.52,.47-.14,.04,.07-.6,.03-.63-.04-.04-2.31,.95-2.47,1-4.45,1.42-9.24,1.5-13.76,.36-5.16-1.31-9.75-4.1-13.17-8.19-.87-1.04-2.64-.9-3.54,0-1.02,1.02-.87,2.5,0,3.54,4.12,4.91,10,8.3,16.25,9.68,3.11,.69,6.34,.94,9.5,.63s6.85-.95,9.6-2.67c1.71-1.07,2.92-2.94,2.4-5.01-.44-1.79-2.03-2.99-3.5-3.94-2.87-1.85-6.89-3.08-10.04-1.18s-3.86,5.93-2.91,9.31,3.23,6.27,5.99,8.35c6.55,4.95,15.83,4.15,21.73-1.44,2.34-2.22-1.2-5.75-3.54-3.54h0Z"/>
          <path class="cls-31" d="M189.51,167.2c.09,.31,.23,.61,.37,.9,.05,.1,.1,.19,.16,.28,.17,.27,.38,.52,.59,.77,.07,.09,.15,.17,.24,.24,.04,.04,.09,.08,.14,.11,.2,.16,.4,.32,.62,.47,.09,.06,.19,.12,.29,.17,.29,.14,.58,.27,.88,.37,.11,.04,.23,.07,.34,.09,.33,.1,.66,.12,1,.04,.33-.02,.64-.11,.93-.3,.29-.16,.53-.37,.7-.64,.22-.24,.37-.52,.45-.85l.09-.66c0-.45-.12-.87-.34-1.26l-.39-.51c-.31-.31-.68-.52-1.1-.64-.17-.03-.33-.08-.49-.15l.6,.25c-.19-.08-.37-.19-.54-.31l.51,.39c-.17-.13-.33-.29-.46-.46l.39,.51c-.12-.16-.22-.33-.3-.51l.25,.6c-.03-.08-.06-.15-.08-.23-.08-.33-.23-.61-.45-.85-.18-.27-.41-.49-.7-.64-.29-.18-.6-.28-.93-.3-.33-.07-.66-.06-1,.04l-.6,.25c-.38,.22-.67,.52-.9,.9l-.25,.6c-.12,.44-.12,.89,0,1.33h0Z"/>
          <path class="cls-31" d="M204.54,164.29c.21,.02,.43,.04,.64,.07l-.66-.09c.96,.13,1.89,.39,2.78,.76l-.6-.25c.37,.16,.73,.34,1.08,.53,.57,.32,1.29,.43,1.93,.25,.58-.16,1.21-.61,1.49-1.15,.31-.58,.46-1.28,.25-1.93s-.57-1.17-1.15-1.49c-1.79-1-3.73-1.55-5.76-1.7-.61-.05-1.35,.31-1.77,.73s-.76,1.15-.73,1.77,.24,1.32,.73,1.77l.51,.39c.39,.23,.81,.34,1.26,.34h0Z"/>
          <path class="cls-31" d="M214.88,165.05c.09,.9,.16,1.82,.11,2.72,0,.12-.02,.24-.03,.36-.03,.28-.03,.24,.02-.13-.06,.09-.08,.4-.11,.51-.04,.14-.09,.56-.21,.65,.15-.34,.16-.38,.04-.14-.05,.1-.11,.19-.17,.29-.25,.44,.36-.31-.03,.02-.08,.08-.16,.16-.25,.24,.27-.2,.29-.22,.06-.07-.11,.06-.22,.12-.33,.18,.31-.13,.33-.15,.07-.06-.09,.03-.18,.05-.27,.06-.19,.04-.12,.03,.2-.03-.12,0-.25,0-.38,0-.29-.02-.25-.01,.11,.02-.12-.02-.24-.05-.36-.09-.26-.09-.24-.08,.08,.04,.09-.14-.85-.24-.11-.02-.09-.08-.18-.16-.26-.25-.18-.21-.16-.18,.06,.08-.07-.1-.13-.2-.18-.31-.12-.25-.11-.21,.04,.1-.05-.03-.16-.5-.14-.52,.04,.37,.05,.41,.03,.13,0-.12,0-.24,0-.36-.06,.37-.07,.41-.01,.13,.03-.12,.06-.23,.1-.35-.12,.42-.01,.06,.11-.15,.15-.25,.33-.49,.5-.72,.35-.47,.7-.93,1.05-1.39,1.53-2.03,3.07-4.05,4.6-6.08,.79-1.05,.2-2.84-.9-3.42-1.32-.7-2.57-.22-3.42,.9-1.46,1.92-2.92,3.85-4.37,5.77-.66,.87-1.44,1.73-1.94,2.7-.66,1.27-.83,2.58-.6,3.99,.37,2.3,2.3,4.26,4.59,4.66,2.54,.44,5.11-.63,6.4-2.92,1.12-1.99,1.14-4.36,.9-6.58-.14-1.3-1.05-2.56-2.5-2.5-1.24,.06-2.65,1.11-2.5,2.5h0Z"/>
          <path class="cls-31" d="M221.92,139.23c-1.54,.92-2.62,2.51-2.91,4.28-.34,2.08,.16,3.97,.99,5.87,1.59,3.65,3.46,7.2,5.19,10.79,.59,1.22,2.32,1.54,3.42,.9,1.24-.73,1.49-2.2,.9-3.42-1.47-3.04-2.94-6.07-4.41-9.11-.27-.57-.58-1.17-.76-1.64s-.44-1.36-.47-1.65c0-.11,.05-1.03-.03-.53,.04-.24,.1-.47,.18-.7-.19,.56,.39-.6,.03-.13,.1-.12,.21-.23,.32-.33-.2,.15-.18,.15,.06-.01,2.76-1.64,.25-5.97-2.52-4.32h0Z"/>
          <path class="cls-31" d="M224.03,161.86c.32-.25-.1,.07-.21,.15-.22,.15-.43,.29-.66,.43-.41,.26-.84,.49-1.28,.7-.13,.06-.62,.26-.23,.11-.25,.09-.49,.19-.74,.27-.46,.16-.93,.29-1.41,.4-.22,.05-.44,.09-.66,.13-.15,.03-.3,.05-.44,.07,.04,0,.4-.04,.11-.02-.49,.03-.97,.08-1.46,.08s-.97-.05-1.46-.07c-.29-.01,.06,.01,.11,.02-.11-.02-.22-.03-.33-.05-.26-.04-.52-.1-.77-.15s-.51-.12-.76-.2c-.1-.03-.22-.06-.32-.11,.04,.02,.36,.13,.1,.01-.25-.11,.03,0,.07,.06,.08,.11,.14,.19,.19,.31,.18,.48-.07,.85-.28,1.28-.05,.11-.39,.22,.03,.03,.1-.05,.2-.1,.3-.15,.21-.1,.43-.21,.64-.31,.46-.22,.93-.44,1.4-.66,1.91-.88,3.83-1.73,5.69-2.72,2.16-1.15,4.21-2.53,5.98-4.22,.95-.9,.98-2.64,0-3.54s-2.52-.96-3.54,0c-.43,.41-.88,.79-1.33,1.16-.31,.25,.28-.19-.05,.04-.1,.07-.19,.14-.28,.21-.29,.21-.58,.4-.87,.6-1.02,.67-2.09,1.26-3.17,1.82-2.16,1.1-4.39,2.04-6.57,3.09-1.56,.75-2.91,1.87-2.89,3.76s1.45,3.33,3.15,3.99c2.38,.93,5.15,.93,7.65,.55,2.91-.44,5.55-1.73,7.84-3.55,1.03-.82,.92-2.69,0-3.54-1.09-1-2.44-.87-3.54,0h0Z"/>
          <path class="cls-31" d="M227.24,139.68c-2.52-1.16-5.1,.13-5.94,2.74-.72,2.23-.43,5,.11,7.23s1.72,4.35,2.68,6.49c.79,1.77,1.3,3.62,.59,5.48-.48,1.26,.53,2.74,1.75,3.08,1.41,.39,2.59-.48,3.08-1.75,1.45-3.8-.26-7.62-1.9-11.03-.71-1.48-1.34-2.99-1.58-4.62-.13-.87-.11-1.78-.06-2.66,0-.02,.15-.91,.16-.89,0,.05-.02,.09-.05,.13-.39,.37-.84,.4-1.36,.11,1.23,.56,2.69,.35,3.42-.9,.63-1.08,.34-2.85-.9-3.42h0Z"/>
          <path class="cls-31" d="M217.56,162.23l-1.01-.79c-.16-.12-.33-.32-.5-.4l-.1-.09c.22,.35,.27,.42,.17,.19l.34,1.26c.11,1.29-1.52,1.96-.66,1.47,.13-.08,.27-.15,.41-.22s.28-.13,.42-.2c.06-.03,.11-.05,.17-.08,.17-.07,.11-.05-.17,.07,.02,.03,2.03-.85,2.05-.85,1.15-.51,2.22-1.25,3.1-2.16,1.74-1.79,2.81-4.11,3.53-6.47,.38-1.25-.46-2.78-1.75-3.08s-2.67,.41-3.08,1.75c-.1,.32-.2,.64-.31,.95-.06,.16-.11,.32-.18,.47-.04,.1-.08,.21-.12,.31l.12-.29c.02,.22-.33,.71-.43,.91-.15,.29-.32,.58-.5,.87-.09,.14-.18,.28-.27,.41-.13,.19-.42,.38,0,.02-.24,.21-.43,.5-.66,.73-.12,.11-.24,.23-.36,.33-.06,.05-.12,.11-.19,.16-.14,.12-.08,.07,.18-.14-.3,.14-.57,.39-.87,.55-.16,.09-.33,.17-.49,.25-.13,.06-.66,.3-.08,.05-.34,.15-.69,.28-1.03,.42-.8,.33-1.66,.65-2.37,1.15-1.33,.94-1.93,2.58-1.03,4.05,.49,.81,1.41,1.35,2.14,1.93,.54,.43,1.05,.73,1.77,.73,.61,0,1.35-.27,1.77-.73,.83-.9,1.1-2.67,0-3.54h0Z"/>
          <path class="cls-31" d="M224.54,152.45c2.78,3,5.93,5.65,9.32,7.94,1.09,.73,2.82,.24,3.42-.9,.67-1.26,.26-2.64-.9-3.42-.78-.53-1.55-1.07-2.3-1.64-.04-.03-.45-.35-.12-.09,.3,.23,0,0-.06-.05-.19-.15-.37-.29-.55-.44-.39-.31-.77-.63-1.15-.96-1.45-1.25-2.83-2.58-4.13-3.98-.89-.96-2.65-.97-3.54,0-.94,1.03-.95,2.51,0,3.54h0Z"/>
          <path class="cls-31" d="M240.37,161.9c.11,.44,.21,.88,.28,1.32,.02,.13,.04,.25,.06,.38-.04-.35-.05-.38-.01-.09,.02,.19,.04,.38,.06,.58,.07,.82-.02,1.64,.01,2.45-.03-.7,.06-.37,.01-.13-.03,.18-.07,.35-.12,.53-.04,.13-.08,.25-.12,.38-.13,.41,.3-.57-.02,0-.06,.1-.15,.21-.2,.32,.27-.34,.32-.41,.16-.22-.06,.06-.11,.11-.17,.16l.32-.25c-.07,.04-.13,.08-.21,.12,.42-.16,.5-.2,.26-.12-.08,.02-.16,.04-.25,.06l1.33,4.82c2.44-.63,4.4-2.22,6.21-3.91,.79-.74,1.57-1.5,2.4-2.2,.11-.09,.22-.18,.33-.27,.34-.28-.36,.26-.11,.08,.21-.15,.42-.31,.64-.45,.47-.31,.97-.58,1.49-.81l-3.42-3.42c-1.28,2.82-2,5.78-2.03,8.89-.01,1.41,1.16,2.42,2.5,2.5,.32,.02,.64,.04,.96,.06,1.31,.08,2.56-1.21,2.5-2.5-.06-1.42-1.1-2.41-2.5-2.5-.32-.02-.64-.04-.96-.06l2.5,2.5c0-.62,.04-1.25,.1-1.87,0-.08,.06-.62,.02-.23s.03-.19,.04-.22c.05-.31,.11-.61,.18-.92,.13-.58,.28-1.15,.47-1.72,.1-.3,.2-.59,.31-.88,.05-.14,.1-.3,.17-.44l-.11,.25c.05-.11,.1-.23,.15-.34,.45-.99,.48-2.23-.39-3.03s-1.96-.86-3.03-.39c-2.11,.92-3.8,2.58-5.45,4.13-.38,.36-.77,.72-1.17,1.07-.2,.17-.4,.34-.6,.51-.15,.12-.54,.32,.06-.04-.1,.06-.19,.14-.28,.21-.41,.3-.85,.57-1.3,.8-.1,.05-.21,.1-.31,.15-.45,.23,.57-.21,.08-.04-.27,.09-.53,.18-.8,.25-1.27,.33-2.16,1.8-1.75,3.08,.44,1.37,1.7,2.01,3.08,1.75,2.16-.42,3.53-2.56,3.87-4.6,.39-2.33,.13-4.75-.44-7.03-.32-1.27-1.81-2.15-3.08-1.75s-2.09,1.72-1.75,3.08h0Z"/>
        </g>
      </g>
    </g>
    <g class="cls-28">
      <g>
        <g>
          <path class="cls-29" d="M124.15,41.29c-5.41-1.12-10.11-5.11-11.89-10.38-1.03-3.06-1.02-6.23,.63-9.07,1.52-2.62,3.92-4.75,6.27-6.62,1.17-.94,2.48-1.79,3.97-2.1,1.84-.38,3.73,.05,5.53,.44,2.55,.56,5.37,1.17,7.45,2.87,2.5,2.04,2.41,5.36,2.98,8.28,.63,3.26,1.51,6.92-1.02,9.62-4.51,4.81-16.61,2.91-17.04-4.63l-.37,.88c-.25,.22-.21-.03,.06,.22,.16,.14,.41,.25,.6,.36,.43,.26,.85,.53,1.34,.67,.93,.28,1.92,.2,2.81-.17,1.83-.77,2.81-2.73,2.62-4.67l-.62,1.08s.71,.4,.8,.44c.42,.2,.86,.36,1.33,.38,.75,.03,1.43-.25,1.93-.82,.44-.5,.63-1.15,.78-1.79,.08-.34,.16-.69,.24-1.03,.02-.11,.06-.19,.11-.28,.07-.16-.36,.09,.06,.02l-1.41-.57c.44,1.04,.71,2.12,.89,3.23,.25,1.58,2.66,.91,2.41-.66-.21-1.34-.61-2.58-1.14-3.83-.23-.54-.91-.66-1.41-.57-1.64,.27-1.85,1.96-2.21,3.27-.04,.14-.08,.5-.21,.6,.16-.12-.09-.09-.25-.17-.18-.09-.36-.19-.54-.27-.9-.43-1.72-.6-2.64-.1-.36,.2-.66,.66-.62,1.08,.08,.87-.08,1.82-.92,2.29-1.04,.59-1.8-.17-2.68-.64-1.52-.82-3.63-.48-3.41,1.64,.43,4.14,3.77,7.08,7.54,8.34,4.01,1.33,8.9,1.24,12.4-1.36s4.16-6.72,3.43-10.92c-.4-2.29-.7-4.67-1.23-6.93-.44-1.85-1.37-3.51-2.83-4.74-2.83-2.39-6.82-3.26-10.38-3.88-2.29-.4-4.55-.45-6.72,.49-1.91,.83-3.53,2.25-5.08,3.61-2.93,2.59-5.82,5.77-6.49,9.77-1.48,8.83,5.94,17.31,14.28,19.04,1.57,.33,2.24-2.08,.66-2.41h0Z"/>
          <path class="cls-29" d="M127.49,44.87c-.82,.48-.97,1.62-.28,2.29s1.6,.35,2.38,.12c1.43-.43,2.83-1,4.17-1.68,2.6-1.31,4.98-3.1,6.99-5.22,.94-.99-.29-2.77-1.51-1.96-.58,.38-.98,.89-1.16,1.56-.41,1.56,2,2.22,2.41,.66,0-.04-.03-.04,.01-.07l-1.51-1.96c-1.49,1.57-3.17,2.93-5.03,4.04-.9,.53-1.83,1.01-2.79,1.42-.49,.21-.98,.39-1.48,.56-.28,.09-.55,.18-.83,.26-.12,.04-.25,.07-.37,.11-.06,.02-.12,.03-.19,.05-.17,.04-.12,.05,.15,.02l.55,.32-.07-.08,.32,.55-.02-.11v.66l.03-.09-.57,.75,.08-.05c1.39-.81,.13-2.97-1.26-2.16h0Z"/>
          <path class="cls-29" d="M131.7,50.05l-.06,.02c-.64,.19-1.06,.88-.87,1.54,.23,.77,1.04,1.23,1.83,1.03,.64-.16,1.28-.5,1.88-.76,1.2-.51,2.38-1.08,3.52-1.72,2.32-1.28,4.5-2.81,6.52-4.53l-1.77-1.77c-.16,.19-.31,.37-.47,.56-.43,.52-.51,1.26,0,1.77,.45,.45,1.33,.52,1.77,0,.16-.19,.31-.37,.47-.56,1.04-1.23-.53-2.81-1.77-1.77-1.61,1.36-3.33,2.57-5.14,3.64-.92,.54-1.87,1.05-2.84,1.51-.48,.23-.97,.46-1.46,.66-.21,.09-.42,.17-.63,.26-.09,.03-.58,.25-.52,.25l.63,.17,.09,.09,.32,.55-.02-.05-.87,1.54,.06-.02c1.54-.45,.89-2.86-.66-2.41h0Z"/>
          <path class="cls-29" d="M142.63,54.22c-.88-.56-1.97-.36-2.74,.28s-1.03,1.69-.76,2.64c.55,1.92,2.84,2.94,4.65,2.17s2.42-3.18,1.01-4.58c-1.27-1.26-3.58-.92-5.03-.15-1,.53-1.42,1.63-1.18,2.71,.18,.86,.74,1.62,1.41,2.17,1.47,1.2,3.43,1.56,5.16,.71s2.54-2.6,2.2-4.4c-.15-.79-.59-1.57-1.19-2.09-.78-.66-1.73-.91-2.73-.98-1.64-.12-3.54,.28-4.68,1.54s-1.42,3.11-.79,4.66c.66,1.65,2.12,2.72,3.88,2.96s3.42-.34,4.66-1.54,2.04-2.99,2.03-4.71c0-1.98-1.45-3.44-3.37-3.7-1.81-.25-3.54,.64-5,1.62s-2.82,2.37-2.69,4.24,1.51,3.18,3.15,3.79c1.5,.56,3.26,.26,4.63-.52s2.5-2.13,2.91-3.68c.21-.81,.27-1.74-.03-2.53-.36-.96-1.09-1.56-2.05-1.87-.31-.1-.63-.16-.94-.25-.14-.04-.29-.08-.43-.14,.23,.1,0,0-.04-.04-.16-.14,.21,.2-.05-.04-.49-.46-1.28-.49-1.77,0s-.49,1.3,0,1.77c.46,.43,1.02,.7,1.62,.86,.24,.07,.48,.12,.72,.18,.11,.03,.22,.06,.32,.1,.18,.06-.16-.09,0,0,.06,.04,.13,.07,.19,.11,.12,.08-.02-.01-.04-.02,.01,.01,.12,.15,.06,.06-.06-.11,.04,.08,.04,.07-.01-.05-.05-.21,.01,.04,.02,.06,.06,.35,.05,.15,.01,.15,.01,.29,0,.44-.02,.29-.18,.81-.34,1.11-.11,.2-.23,.4-.38,.59,.13-.16-.1,.11-.14,.15-.09,.1-.19,.2-.29,.29-.09,.08-.17,.16-.27,.23,.17-.13-.12,.08-.17,.11-.21,.14-.44,.26-.67,.36,.2-.09-.13,.04-.19,.06-.11,.04-.22,.07-.33,.1s-.23,.05-.34,.07c-.2,.04,.19-.01-.01,0-.08,0-.15,.01-.23,.01-.12,0-.23,0-.35,0-.06,0-.35-.04-.24-.02,.15,.03-.09-.02-.13-.03-.06-.01-.12-.03-.17-.05s-.12-.04-.17-.05c-.02,0-.24-.09-.13-.05,.06,.03-.23-.12-.29-.15-.1-.06-.21-.13-.31-.2,.15,.11-.08-.07-.12-.11-.12-.11-.23-.22-.32-.34,.12,.15-.04-.08-.07-.13-.04-.06-.15-.31-.07-.11-.05-.12-.08-.25-.11-.38-.04-.14,0,.03,0,.05,0-.08,0-.15,0-.23-.01-.21-.04,.07,.01-.15,.02-.08,.11-.37,.09-.31-.03,.07,.1-.18,.13-.23s.24-.32,.13-.19c.41-.49,.7-.69,1.16-1,.51-.34,1.03-.65,1.58-.91,.4-.19,1.05-.38,1.46-.39,.12,0,.24,0,.36,.02-.21-.02,.07,.02,.14,.04,.12,.03,.23,.06,.34,.11-.19-.07,0,0,.03,.02,.07,.04,.14,.08,.2,.12,.18,.1-.03-.06,.11,.09,.04,.04,.08,.08,.12,.12,.13,.14-.08-.14,.02,.02,.03,.05,.06,.1,.09,.15-.01-.02-.05-.15,0,0,.02,.06,.1,.4,.08,.28,.02,.16,.01,.33,0,.5,0,.07,0,.14-.02,.21,0-.03,.02-.12,0,.01-.05,.29-.12,.58-.22,.87-.11,.31-.07,.23-.23,.52-.11,.21-.34,.57-.42,.68-.27,.35-.64,.68-1.01,.9-.13,.07-.26,.14-.39,.2,.17-.08-.1,.03-.15,.05-.12,.04-.23,.07-.35,.1-.08,.02-.16,.03-.24,.05,.13-.02,.06,0-.03,0-.26,.02-.52,.02-.79,0-.15-.01,0,0,.03,0-.06-.01-.12-.02-.18-.03-.14-.03-.27-.06-.41-.11-.06-.02-.11-.04-.17-.06-.19-.07,.15,.08-.03-.02-.11-.05-.21-.11-.31-.17-.05-.03-.27-.19-.22-.14,.1,.08-.05-.05-.06-.06-.07-.07-.14-.14-.21-.21-.04-.04-.08-.09-.11-.13,.02,.02,.1,.14,.03,.02-.06-.1-.12-.19-.18-.3-.03-.05-.05-.1-.08-.16,.09,.19,0,.02,0-.02-.04-.13-.08-.26-.11-.39-.01-.06-.02-.11-.03-.17,0,.02,.02,.19,0,.05-.01-.13-.02-.27-.02-.4,0-.08,.03-.34,0-.12,.02-.13,.05-.26,.09-.39,.02-.08,.15-.37,.05-.18,.05-.1,.11-.2,.17-.3,.11-.18-.07,.04,.08-.11,.06-.06,.12-.12,.18-.18,.04-.04,.14-.12,.03-.04,.19-.15,.42-.27,.64-.37-.17,.07,.17-.05,.23-.07,.14-.04,.29-.08,.43-.11,.06-.01,.13-.02,.19-.03,.21-.04-.17,.01,.05,0,.13-.01,.25-.02,.38-.03,.31-.01,.62,0,.93,.03,.15,.02,.05,0,.02,0,.07,.01,.14,.03,.21,.04,.14,.03,.28,.06,.41,.12,.14,.06,.05,.02,.03,.01,.08,.04,.15,.08,.22,.13-.17-.11,.08,.07,.13,.13,.04,.04,.08,.08,.11,.13-.02-.02-.1-.14-.03-.03s.14,.22,.19,.35c-.08-.19,0,.06,.03,.13,.01,.06,.03,.11,.04,.17,.04,.19,0-.19,0,0,0,.13,0,.26,0,.4,0-.21,0,.02-.03,.12-.01,.06-.11,.31-.03,.14-.06,.15-.15,.29-.24,.42,.1-.15-.07,.08-.11,.12-.04,.04-.26,.24-.11,.12-.11,.09-.24,.16-.36,.23-.05,.03-.11,.06-.16,.08,.12-.06,.04-.01-.04,.01-.12,.04-.23,.07-.35,.1-.22,.06-.09,.02-.03,.01-.06,0-.12,.01-.19,.01-.13,0-.26,0-.39,0-.15-.01-.02,0,.01,0-.11-.02-.21-.04-.32-.07-.07-.02-.31-.1-.28-.09s-.2-.1-.26-.13c-.31-.17-.35-.2-.58-.43-.05-.05-.23-.24-.21-.21,.07,.08-.05-.08-.05-.08-.05-.07-.09-.15-.13-.22,0,0-.08-.19-.04-.08s-.02-.09-.02-.09c0,0-.04-.21-.02-.08s-.06-.16,0-.02c.02,.05-.04,.09-.05,.13,.05-.23,.08-.07,.02-.03-.17,.11,.17-.07-.02,.02,.26-.11,.55-.18,.83-.25,.12-.03,.24-.05,.37-.08,.22-.05-.07-.01,.16-.02,.14,0,.28,0,.42,0s-.02-.01-.04-.02c.07,.01,.15,.04,.22,.05,.02,0,.19,.03,.06,.01-.12-.01,.03,0,.05,.04-.12-.25,.15,.19,.06,.06s.02,.05,.01,.05c-.03,0-.05-.2-.04-.05s0-.06,0-.07c0,.07,0,.14,0,.21-.02-.19,.03-.11,0-.01-.02,.05-.03,.1-.05,.16-.04,.14,.01-.03,.02-.05-.03,.05-.05,.1-.08,.14-.09,.12,.04-.03,.03-.04,0,.01-.21,.19,.01,.02-.05,.04-.1,.07-.16,.1-.16,.1,.14-.04-.04,.02-.06,.02-.12,.03-.18,.05,.02,0,.18-.01,.03,0-.07,0-.43-.02-.22,.02-.12-.02-.24-.05-.36-.09,.16,.05-.15-.08-.2-.12-.11-.07-.03-.01,0,0-.07-.05-.13-.12-.19-.18,.09,.1-.08-.12-.11-.17,.07,.13-.04-.12-.05-.18,0,.04,0,.16,.01,.02,0-.09,0-.08,0,.02l.03-.1c-.07-.04,.03,.22-.01,.07-.03-.09,.06,.01-.03,.05,.09-.04,.05-.12,.03-.04l-.04,.04,.09-.05s-.27,.11-.01,.02c-.01,0-.23,.02-.08,.02s-.08-.01-.09-.01c-.04,0-.23-.13-.03,0,.57,.36,1.38,.12,1.71-.45,.35-.6,.12-1.35-.45-1.71h0Z"/>
        </g>
        <g>
          <g>
            <path class="cls-29" d="M62.38,70.74c-5.41-1.12-10.11-5.11-11.89-10.38-1.03-3.06-1.02-6.23,.63-9.07,1.52-2.62,3.92-4.75,6.27-6.62,1.17-.94,2.48-1.79,3.97-2.1,1.84-.38,3.73,.05,5.53,.44,2.55,.56,5.37,1.17,7.45,2.87,2.5,2.04,2.41,5.36,2.98,8.28,.63,3.26,1.51,6.92-1.02,9.62-4.51,4.81-16.61,2.91-17.04-4.63l-.37,.88c-.25,.22-.21-.03,.06,.22,.16,.14,.41,.25,.6,.36,.43,.26,.85,.53,1.34,.67,.93,.28,1.92,.2,2.81-.17,1.83-.77,2.81-2.73,2.62-4.67l-.62,1.08s.71,.4,.8,.44c.42,.2,.86,.36,1.33,.38,.75,.03,1.43-.25,1.93-.82,.44-.5,.63-1.15,.78-1.79,.08-.34,.16-.69,.24-1.03,.02-.11,.06-.19,.11-.28,.07-.16-.36,.09,.06,.02l-1.41-.57c.44,1.04,.71,2.12,.89,3.23,.25,1.58,2.66,.91,2.41-.66-.21-1.34-.61-2.58-1.14-3.83-.23-.54-.91-.66-1.41-.57-1.64,.27-1.85,1.96-2.21,3.27-.04,.14-.08,.5-.21,.6,.16-.12-.09-.09-.25-.17-.18-.09-.36-.19-.54-.27-.9-.43-1.72-.6-2.64-.1-.36,.2-.66,.66-.62,1.08,.08,.87-.08,1.82-.92,2.29-1.04,.59-1.8-.17-2.68-.64-1.52-.82-3.63-.48-3.41,1.64,.43,4.14,3.77,7.08,7.54,8.34,4.01,1.33,8.9,1.24,12.4-1.36s4.16-6.72,3.43-10.92c-.4-2.29-.7-4.67-1.23-6.93-.44-1.85-1.37-3.51-2.83-4.74-2.83-2.39-6.82-3.26-10.38-3.88-2.29-.4-4.55-.45-6.72,.49-1.91,.83-3.53,2.25-5.08,3.61-2.93,2.59-5.82,5.77-6.49,9.77-1.48,8.83,5.94,17.31,14.28,19.04,1.57,.33,2.24-2.08,.66-2.41h0Z"/>
            <path class="cls-29" d="M65.73,74.31c-.82,.48-.97,1.62-.28,2.29s1.6,.35,2.38,.12c1.43-.43,2.83-1,4.17-1.68,2.6-1.31,4.98-3.1,6.99-5.22,.94-.99-.29-2.77-1.51-1.96-.58,.38-.98,.89-1.16,1.56-.41,1.56,2,2.22,2.41,.66,0-.04-.03-.04,.01-.07l-1.51-1.96c-1.49,1.57-3.17,2.93-5.03,4.04-.9,.53-1.83,1.01-2.79,1.42-.49,.21-.98,.39-1.48,.56-.28,.09-.55,.18-.83,.26-.12,.04-.25,.07-.37,.11-.06,.02-.12,.03-.19,.05-.17,.04-.12,.05,.15,.02l.55,.32-.07-.08,.32,.55-.02-.11v.66l.03-.09-.57,.75,.08-.05c1.39-.81,.13-2.97-1.26-2.16h0Z"/>
            <path class="cls-29" d="M69.94,79.5l-.06,.02c-.64,.19-1.06,.88-.87,1.54,.23,.77,1.04,1.23,1.83,1.03,.64-.16,1.28-.5,1.88-.76,1.2-.51,2.38-1.08,3.52-1.72,2.32-1.28,4.5-2.81,6.52-4.53l-1.77-1.77c-.16,.19-.31,.37-.47,.56-.43,.52-.51,1.26,0,1.77,.45,.45,1.33,.52,1.77,0,.16-.19,.31-.37,.47-.56,1.04-1.23-.53-2.81-1.77-1.77-1.61,1.36-3.33,2.57-5.14,3.64-.92,.54-1.87,1.05-2.84,1.51-.48,.23-.97,.46-1.46,.66-.21,.09-.42,.17-.63,.26-.09,.03-.58,.25-.52,.25l.63,.17,.09,.09,.32,.55-.02-.05-.87,1.54,.06-.02c1.54-.45,.89-2.86-.66-2.41h0Z"/>
            <path class="cls-29" d="M80.86,83.66c-.88-.56-1.97-.36-2.74,.28s-1.03,1.69-.76,2.64c.55,1.92,2.84,2.94,4.65,2.17s2.42-3.18,1.01-4.58c-1.27-1.26-3.58-.92-5.03-.15-1,.53-1.42,1.63-1.18,2.71,.18,.86,.74,1.62,1.41,2.17,1.47,1.2,3.43,1.56,5.16,.71s2.54-2.6,2.2-4.4c-.15-.79-.59-1.57-1.19-2.09-.78-.66-1.73-.91-2.73-.98-1.64-.12-3.54,.28-4.68,1.54s-1.42,3.11-.79,4.66c.66,1.65,2.12,2.72,3.88,2.96s3.42-.34,4.66-1.54,2.04-2.99,2.03-4.71c0-1.98-1.45-3.44-3.37-3.7-1.81-.25-3.54,.64-5,1.62s-2.82,2.37-2.69,4.24,1.51,3.18,3.15,3.79c1.5,.56,3.26,.26,4.63-.52s2.5-2.13,2.91-3.68c.21-.81,.27-1.74-.03-2.53-.36-.96-1.09-1.56-2.05-1.87-.31-.1-.63-.16-.94-.25-.14-.04-.29-.08-.43-.14,.23,.1,0,0-.04-.04-.16-.14,.21,.2-.05-.04-.49-.46-1.28-.49-1.77,0s-.49,1.3,0,1.77c.46,.43,1.02,.7,1.62,.86,.24,.07,.48,.12,.72,.18,.11,.03,.22,.06,.32,.1,.18,.06-.16-.09,0,0,.06,.04,.13,.07,.19,.11,.12,.08-.02-.01-.04-.02,.01,.01,.12,.15,.06,.06-.06-.11,.04,.08,.04,.07-.01-.05-.05-.21,.01,.04,.02,.06,.06,.35,.05,.15,.01,.15,.01,.29,0,.44-.02,.29-.18,.81-.34,1.11-.11,.2-.23,.4-.38,.59,.13-.16-.1,.11-.14,.15-.09,.1-.19,.2-.29,.29-.09,.08-.17,.16-.27,.23,.17-.13-.12,.08-.17,.11-.21,.14-.44,.26-.67,.36,.2-.09-.13,.04-.19,.06-.11,.04-.22,.07-.33,.1s-.23,.05-.34,.07c-.2,.04,.19-.01-.01,0-.08,0-.15,.01-.23,.01-.12,0-.23,0-.35,0-.06,0-.35-.04-.24-.02,.15,.03-.09-.02-.13-.03-.06-.01-.12-.03-.17-.05s-.12-.04-.17-.05c-.02,0-.24-.09-.13-.05,.06,.03-.23-.12-.29-.15-.1-.06-.21-.13-.31-.2,.15,.11-.08-.07-.12-.11-.12-.11-.23-.22-.32-.34,.12,.15-.04-.08-.07-.13-.04-.06-.15-.31-.07-.11-.05-.12-.08-.25-.11-.38-.04-.14,0,.03,0,.05,0-.08,0-.15,0-.23-.01-.21-.04,.07,.01-.15,.02-.08,.11-.37,.09-.31-.03,.07,.1-.18,.13-.23s.24-.32,.13-.19c.41-.49,.7-.69,1.16-1,.51-.34,1.03-.65,1.58-.91,.4-.19,1.05-.38,1.46-.39,.12,0,.24,0,.36,.02-.21-.02,.07,.02,.14,.04,.12,.03,.23,.06,.34,.11-.19-.07,0,0,.03,.02,.07,.04,.14,.08,.2,.12,.18,.1-.03-.06,.11,.09,.04,.04,.08,.08,.12,.12,.13,.14-.08-.14,.02,.02,.03,.05,.06,.1,.09,.15-.01-.02-.05-.15,0,0,.02,.06,.1,.4,.08,.28,.02,.16,.01,.33,0,.5,0,.07,0,.14-.02,.21,0-.03,.02-.12,0,.01-.05,.29-.12,.58-.22,.87-.11,.31-.07,.23-.23,.52-.11,.21-.34,.57-.42,.68-.27,.35-.64,.68-1.01,.9-.13,.07-.26,.14-.39,.2,.17-.08-.1,.03-.15,.05-.12,.04-.23,.07-.35,.1-.08,.02-.16,.03-.24,.05,.13-.02,.06,0-.03,0-.26,.02-.52,.02-.79,0-.15-.01,0,0,.03,0-.06-.01-.12-.02-.18-.03-.14-.03-.27-.06-.41-.11-.06-.02-.11-.04-.17-.06-.19-.07,.15,.08-.03-.02-.11-.05-.21-.11-.31-.17-.05-.03-.27-.19-.22-.14,.1,.08-.05-.05-.06-.06-.07-.07-.14-.14-.21-.21-.04-.04-.08-.09-.11-.13,.02,.02,.1,.14,.03,.02-.06-.1-.12-.19-.18-.3-.03-.05-.05-.1-.08-.16,.09,.19,0,.02,0-.02-.04-.13-.08-.26-.11-.39-.01-.06-.02-.11-.03-.17,0,.02,.02,.19,0,.05-.01-.13-.02-.27-.02-.4,0-.08,.03-.34,0-.12,.02-.13,.05-.26,.09-.39,.02-.08,.15-.37,.05-.18,.05-.1,.11-.2,.17-.3,.11-.18-.07,.04,.08-.11,.06-.06,.12-.12,.18-.18,.04-.04,.14-.12,.03-.04,.19-.15,.42-.27,.64-.37-.17,.07,.17-.05,.23-.07,.14-.04,.29-.08,.43-.11,.06-.01,.13-.02,.19-.03,.21-.04-.17,.01,.05,0,.13-.01,.25-.02,.38-.03,.31-.01,.62,0,.93,.03,.15,.02,.05,0,.02,0,.07,.01,.14,.03,.21,.04,.14,.03,.28,.06,.41,.12,.14,.06,.05,.02,.03,.01,.08,.04,.15,.08,.22,.13-.17-.11,.08,.07,.13,.13,.04,.04,.08,.08,.11,.13-.02-.02-.1-.14-.03-.03s.14,.22,.19,.35c-.08-.19,0,.06,.03,.13,.01,.06,.03,.11,.04,.17,.04,.19,0-.19,0,0,0,.13,0,.26,0,.4,0-.21,0,.02-.03,.12-.01,.06-.11,.31-.03,.14-.06,.15-.15,.29-.24,.42,.1-.15-.07,.08-.11,.12-.04,.04-.26,.24-.11,.12-.11,.09-.24,.16-.36,.23-.05,.03-.11,.06-.16,.08,.12-.06,.04-.01-.04,.01-.12,.04-.23,.07-.35,.1-.22,.06-.09,.02-.03,.01-.06,0-.12,.01-.19,.01-.13,0-.26,0-.39,0-.15-.01-.02,0,.01,0-.11-.02-.21-.04-.32-.07-.07-.02-.31-.1-.28-.09s-.2-.1-.26-.13c-.31-.17-.35-.2-.58-.43-.05-.05-.23-.24-.21-.21,.07,.08-.05-.08-.05-.08-.05-.07-.09-.15-.13-.22,0,0-.08-.19-.04-.08s-.02-.09-.02-.09c0,0-.04-.21-.02-.08s-.06-.16,0-.02c.02,.05-.04,.09-.05,.13,.05-.23,.08-.07,.02-.03-.17,.11,.17-.07-.02,.02,.26-.11,.55-.18,.83-.25,.12-.03,.24-.05,.37-.08,.22-.05-.07-.01,.16-.02,.14,0,.28,0,.42,0s-.02-.01-.04-.02c.07,.01,.15,.04,.22,.05,.02,0,.19,.03,.06,.01-.12-.01,.03,0,.05,.04-.12-.25,.15,.19,.06,.06s.02,.05,.01,.05c-.03,0-.05-.2-.04-.05s0-.06,0-.07c0,.07,0,.14,0,.21-.02-.19,.03-.11,0-.01-.02,.05-.03,.1-.05,.16-.04,.14,.01-.03,.02-.05-.03,.05-.05,.1-.08,.14-.09,.12,.04-.03,.03-.04,0,.01-.21,.19,.01,.02-.05,.04-.1,.07-.16,.1-.16,.1,.14-.04-.04,.02-.06,.02-.12,.03-.18,.05,.02,0,.18-.01,.03,0-.07,0-.43-.02-.22,.02-.12-.02-.24-.05-.36-.09,.16,.05-.15-.08-.2-.12-.11-.07-.03-.01,0,0-.07-.05-.13-.12-.19-.18,.09,.1-.08-.12-.11-.17,.07,.13-.04-.12-.05-.18,0,.04,0,.16,.01,.02,0-.09,0-.08,0,.02l.03-.1c-.07-.04,.03,.22-.01,.07-.03-.09,.06,.01-.03,.05,.09-.04,.05-.12,.03-.04l-.04,.04,.09-.05s-.27,.11-.01,.02c-.01,0-.23,.02-.08,.02s-.08-.01-.09-.01c-.04,0-.23-.13-.03,0,.57,.36,1.38,.12,1.71-.45,.35-.6,.12-1.35-.45-1.71h0Z"/>
          </g>
          <g>
            <path class="cls-29" d="M1.55,103.71c-5.41-1.12-10.11-5.11-11.89-10.38-1.03-3.06-1.02-6.23,.63-9.07,1.52-2.62,3.92-4.75,6.27-6.62,1.17-.94,2.48-1.79,3.97-2.1,1.84-.38,3.73,.05,5.53,.44,2.55,.56,5.37,1.17,7.45,2.87,2.5,2.04,2.41,5.36,2.98,8.28,.63,3.26,1.51,6.92-1.02,9.62-4.51,4.81-16.61,2.91-17.04-4.63l-.37,.88c-.25,.22-.21-.03,.06,.22,.16,.14,.41,.25,.6,.36,.43,.26,.85,.53,1.34,.67,.93,.28,1.92,.2,2.81-.17,1.83-.77,2.81-2.73,2.62-4.67l-.62,1.08s.71,.4,.8,.44c.42,.2,.86,.36,1.33,.38,.75,.03,1.43-.25,1.93-.82,.44-.5,.63-1.15,.78-1.79,.08-.34,.16-.69,.24-1.03,.02-.11,.06-.19,.11-.28,.07-.16-.36,.09,.06,.02l-1.41-.57c.44,1.04,.71,2.12,.89,3.23,.25,1.58,2.66,.91,2.41-.66-.21-1.34-.61-2.58-1.14-3.83-.23-.54-.91-.66-1.41-.57-1.64,.27-1.85,1.96-2.21,3.27-.04,.14-.08,.5-.21,.6,.16-.12-.09-.09-.25-.17-.18-.09-.36-.19-.54-.27-.9-.43-1.72-.6-2.64-.1-.36,.2-.66,.66-.62,1.08,.08,.87-.08,1.82-.92,2.29-1.04,.59-1.8-.17-2.68-.64-1.52-.82-3.63-.48-3.41,1.64,.43,4.14,3.77,7.08,7.54,8.34,4.01,1.33,8.9,1.24,12.4-1.36s4.16-6.72,3.43-10.92c-.4-2.29-.7-4.67-1.23-6.93-.44-1.85-1.37-3.51-2.83-4.74-2.83-2.39-6.82-3.26-10.38-3.88-2.29-.4-4.55-.45-6.72,.49-1.91,.83-3.53,2.25-5.08,3.61-2.93,2.59-5.82,5.77-6.49,9.77-1.48,8.83,5.94,17.31,14.28,19.04,1.57,.33,2.24-2.08,.66-2.41h0Z"/>
            <path class="cls-29" d="M4.9,107.29c-.82,.48-.97,1.62-.28,2.29s1.6,.35,2.38,.12c1.43-.43,2.83-1,4.17-1.68,2.6-1.31,4.98-3.1,6.99-5.22,.94-.99-.29-2.77-1.51-1.96-.58,.38-.98,.89-1.16,1.56-.41,1.56,2,2.22,2.41,.66,0-.04-.03-.04,.01-.07l-1.51-1.96c-1.49,1.57-3.17,2.93-5.03,4.04-.9,.53-1.83,1.01-2.79,1.42-.49,.21-.98,.39-1.48,.56-.28,.09-.55,.18-.83,.26-.12,.04-.25,.07-.37,.11-.06,.02-.12,.03-.19,.05-.17,.04-.12,.05,.15,.02l.55,.32-.07-.08,.32,.55-.02-.11v.66l.03-.09-.57,.75,.08-.05c1.39-.81,.13-2.97-1.26-2.16h0Z"/>
            <path class="cls-29" d="M9.11,112.47l-.06,.02c-.64,.19-1.06,.88-.87,1.54,.23,.77,1.04,1.23,1.83,1.03,.64-.16,1.28-.5,1.88-.76,1.2-.51,2.38-1.08,3.52-1.72,2.32-1.28,4.5-2.81,6.52-4.53l-1.77-1.77c-.16,.19-.31,.37-.47,.56-.43,.52-.51,1.26,0,1.77,.45,.45,1.33,.52,1.77,0,.16-.19,.31-.37,.47-.56,1.04-1.23-.53-2.81-1.77-1.77-1.61,1.36-3.33,2.57-5.14,3.64-.92,.54-1.87,1.05-2.84,1.51-.48,.23-.97,.46-1.46,.66-.21,.09-.42,.17-.63,.26-.09,.03-.58,.25-.52,.25l.63,.17,.09,.09,.32,.55-.02-.05-.87,1.54,.06-.02c1.54-.45,.89-2.86-.66-2.41h0Z"/>
            <path class="cls-29" d="M20.03,116.64c-.88-.56-1.97-.36-2.74,.28s-1.03,1.69-.76,2.64c.55,1.92,2.84,2.94,4.65,2.17s2.42-3.18,1.01-4.58c-1.27-1.26-3.58-.92-5.03-.15-1,.53-1.42,1.63-1.18,2.71,.18,.86,.74,1.62,1.41,2.17,1.47,1.2,3.43,1.56,5.16,.71s2.54-2.6,2.2-4.4c-.15-.79-.59-1.57-1.19-2.09-.78-.66-1.73-.91-2.73-.98-1.64-.12-3.54,.28-4.68,1.54s-1.42,3.11-.79,4.66c.66,1.65,2.12,2.72,3.88,2.96s3.42-.34,4.66-1.54,2.04-2.99,2.03-4.71c0-1.98-1.45-3.44-3.37-3.7-1.81-.25-3.54,.64-5,1.62s-2.82,2.37-2.69,4.24,1.51,3.18,3.15,3.79c1.5,.56,3.26,.26,4.63-.52s2.5-2.13,2.91-3.68c.21-.81,.27-1.74-.03-2.53-.36-.96-1.09-1.56-2.05-1.87-.31-.1-.63-.16-.94-.25-.14-.04-.29-.08-.43-.14,.23,.1,0,0-.04-.04-.16-.14,.21,.2-.05-.04-.49-.46-1.28-.49-1.77,0s-.49,1.3,0,1.77c.46,.43,1.02,.7,1.62,.86,.24,.07,.48,.12,.72,.18,.11,.03,.22,.06,.32,.1,.18,.06-.16-.09,0,0,.06,.04,.13,.07,.19,.11,.12,.08-.02-.01-.04-.02,.01,.01,.12,.15,.06,.06-.06-.11,.04,.08,.04,.07-.01-.05-.05-.21,.01,.04,.02,.06,.06,.35,.05,.15,.01,.15,.01,.29,0,.44-.02,.29-.18,.81-.34,1.11-.11,.2-.23,.4-.38,.59,.13-.16-.1,.11-.14,.15-.09,.1-.19,.2-.29,.29-.09,.08-.17,.16-.27,.23,.17-.13-.12,.08-.17,.11-.21,.14-.44,.26-.67,.36,.2-.09-.13,.04-.19,.06-.11,.04-.22,.07-.33,.1s-.23,.05-.34,.07c-.2,.04,.19-.01-.01,0-.08,0-.15,.01-.23,.01-.12,0-.23,0-.35,0-.06,0-.35-.04-.24-.02,.15,.03-.09-.02-.13-.03-.06-.01-.12-.03-.17-.05s-.12-.04-.17-.05c-.02,0-.24-.09-.13-.05,.06,.03-.23-.12-.29-.15-.1-.06-.21-.13-.31-.2,.15,.11-.08-.07-.12-.11-.12-.11-.23-.22-.32-.34,.12,.15-.04-.08-.07-.13-.04-.06-.15-.31-.07-.11-.05-.12-.08-.25-.11-.38-.04-.14,0,.03,0,.05,0-.08,0-.15,0-.23-.01-.21-.04,.07,.01-.15,.02-.08,.11-.37,.09-.31-.03,.07,.1-.18,.13-.23s.24-.32,.13-.19c.41-.49,.7-.69,1.16-1,.51-.34,1.03-.65,1.58-.91,.4-.19,1.05-.38,1.46-.39,.12,0,.24,0,.36,.02-.21-.02,.07,.02,.14,.04,.12,.03,.23,.06,.34,.11-.19-.07,0,0,.03,.02,.07,.04,.14,.08,.2,.12,.18,.1-.03-.06,.11,.09,.04,.04,.08,.08,.12,.12,.13,.14-.08-.14,.02,.02,.03,.05,.06,.1,.09,.15-.01-.02-.05-.15,0,0,.02,.06,.1,.4,.08,.28,.02,.16,.01,.33,0,.5,0,.07,0,.14-.02,.21,0-.03,.02-.12,0,.01-.05,.29-.12,.58-.22,.87-.11,.31-.07,.23-.23,.52-.11,.21-.34,.57-.42,.68-.27,.35-.64,.68-1.01,.9-.13,.07-.26,.14-.39,.2,.17-.08-.1,.03-.15,.05-.12,.04-.23,.07-.35,.1-.08,.02-.16,.03-.24,.05,.13-.02,.06,0-.03,0-.26,.02-.52,.02-.79,0-.15-.01,0,0,.03,0-.06-.01-.12-.02-.18-.03-.14-.03-.27-.06-.41-.11-.06-.02-.11-.04-.17-.06-.19-.07,.15,.08-.03-.02-.11-.05-.21-.11-.31-.17-.05-.03-.27-.19-.22-.14,.1,.08-.05-.05-.06-.06-.07-.07-.14-.14-.21-.21-.04-.04-.08-.09-.11-.13,.02,.02,.1,.14,.03,.02-.06-.1-.12-.19-.18-.3-.03-.05-.05-.1-.08-.16,.09,.19,0,.02,0-.02-.04-.13-.08-.26-.11-.39-.01-.06-.02-.11-.03-.17,0,.02,.02,.19,0,.05-.01-.13-.02-.27-.02-.4,0-.08,.03-.34,0-.12,.02-.13,.05-.26,.09-.39,.02-.08,.15-.37,.05-.18,.05-.1,.11-.2,.17-.3,.11-.18-.07,.04,.08-.11,.06-.06,.12-.12,.18-.18,.04-.04,.14-.12,.03-.04,.19-.15,.42-.27,.64-.37-.17,.07,.17-.05,.23-.07,.14-.04,.29-.08,.43-.11,.06-.01,.13-.02,.19-.03,.21-.04-.17,.01,.05,0,.13-.01,.25-.02,.38-.03,.31-.01,.62,0,.93,.03,.15,.02,.05,0,.02,0,.07,.01,.14,.03,.21,.04,.14,.03,.28,.06,.41,.12,.14,.06,.05,.02,.03,.01,.08,.04,.15,.08,.22,.13-.17-.11,.08,.07,.13,.13,.04,.04,.08,.08,.11,.13-.02-.02-.1-.14-.03-.03s.14,.22,.19,.35c-.08-.19,0,.06,.03,.13,.01,.06,.03,.11,.04,.17,.04,.19,0-.19,0,0,0,.13,0,.26,0,.4,0-.21,0,.02-.03,.12-.01,.06-.11,.31-.03,.14-.06,.15-.15,.29-.24,.42,.1-.15-.07,.08-.11,.12-.04,.04-.26,.24-.11,.12-.11,.09-.24,.16-.36,.23-.05,.03-.11,.06-.16,.08,.12-.06,.04-.01-.04,.01-.12,.04-.23,.07-.35,.1-.22,.06-.09,.02-.03,.01-.06,0-.12,.01-.19,.01-.13,0-.26,0-.39,0-.15-.01-.02,0,.01,0-.11-.02-.21-.04-.32-.07-.07-.02-.31-.1-.28-.09s-.2-.1-.26-.13c-.31-.17-.35-.2-.58-.43-.05-.05-.23-.24-.21-.21,.07,.08-.05-.08-.05-.08-.05-.07-.09-.15-.13-.22,0,0-.08-.19-.04-.08s-.02-.09-.02-.09c0,0-.04-.21-.02-.08s-.06-.16,0-.02c.02,.05-.04,.09-.05,.13,.05-.23,.08-.07,.02-.03-.17,.11,.17-.07-.02,.02,.26-.11,.55-.18,.83-.25,.12-.03,.24-.05,.37-.08,.22-.05-.07-.01,.16-.02,.14,0,.28,0,.42,0s-.02-.01-.04-.02c.07,.01,.15,.04,.22,.05,.02,0,.19,.03,.06,.01-.12-.01,.03,0,.05,.04-.12-.25,.15,.19,.06,.06s.02,.05,.01,.05c-.03,0-.05-.2-.04-.05s0-.06,0-.07c0,.07,0,.14,0,.21-.02-.19,.03-.11,0-.01-.02,.05-.03,.1-.05,.16-.04,.14,.01-.03,.02-.05-.03,.05-.05,.1-.08,.14-.09,.12,.04-.03,.03-.04,0,.01-.21,.19,.01,.02-.05,.04-.1,.07-.16,.1-.16,.1,.14-.04-.04,.02-.06,.02-.12,.03-.18,.05,.02,0,.18-.01,.03,0-.07,0-.43-.02-.22,.02-.12-.02-.24-.05-.36-.09,.16,.05-.15-.08-.2-.12-.11-.07-.03-.01,0,0-.07-.05-.13-.12-.19-.18,.09,.1-.08-.12-.11-.17,.07,.13-.04-.12-.05-.18,0,.04,0,.16,.01,.02,0-.09,0-.08,0,.02l.03-.1c-.07-.04,.03,.22-.01,.07-.03-.09,.06,.01-.03,.05,.09-.04,.05-.12,.03-.04l-.04,.04,.09-.05s-.27,.11-.01,.02c-.01,0-.23,.02-.08,.02s-.08-.01-.09-.01c-.04,0-.23-.13-.03,0,.57,.36,1.38,.12,1.71-.45,.35-.6,.12-1.35-.45-1.71h0Z"/>
          </g>
          <g>
            <path class="cls-29" d="M78.19,157.99c-5.41-1.12-10.11-5.11-11.89-10.38-1.03-3.06-1.02-6.23,.63-9.07,1.52-2.62,3.92-4.75,6.27-6.62,1.17-.94,2.48-1.79,3.97-2.1,1.84-.38,3.73,.05,5.53,.44,2.55,.56,5.37,1.17,7.45,2.87,2.5,2.04,2.41,5.36,2.98,8.28,.63,3.26,1.51,6.92-1.02,9.62-4.51,4.81-16.61,2.91-17.04-4.63l-.37,.88c-.25,.22-.21-.03,.06,.22,.16,.14,.41,.25,.6,.36,.43,.26,.85,.53,1.34,.67,.93,.28,1.92,.2,2.81-.17,1.83-.77,2.81-2.73,2.62-4.67l-.62,1.08s.71,.4,.8,.44c.42,.2,.86,.36,1.33,.38,.75,.03,1.43-.25,1.93-.82,.44-.5,.63-1.15,.78-1.79,.08-.34,.16-.69,.24-1.03,.02-.11,.06-.19,.11-.28,.07-.16-.36,.09,.06,.02l-1.41-.57c.44,1.04,.71,2.12,.89,3.23,.25,1.58,2.66,.91,2.41-.66-.21-1.34-.61-2.58-1.14-3.83-.23-.54-.91-.66-1.41-.57-1.64,.27-1.85,1.96-2.21,3.27-.04,.14-.08,.5-.21,.6,.16-.12-.09-.09-.25-.17-.18-.09-.36-.19-.54-.27-.9-.43-1.72-.6-2.64-.1-.36,.2-.66,.66-.62,1.08,.08,.87-.08,1.82-.92,2.29-1.04,.59-1.8-.17-2.68-.64-1.52-.82-3.63-.48-3.41,1.64,.43,4.14,3.77,7.08,7.54,8.34,4.01,1.33,8.9,1.24,12.4-1.36s4.16-6.72,3.43-10.92c-.4-2.29-.7-4.67-1.23-6.93-.44-1.85-1.37-3.51-2.83-4.74-2.83-2.39-6.82-3.26-10.38-3.88-2.29-.4-4.55-.45-6.72,.49-1.91,.83-3.53,2.25-5.08,3.61-2.93,2.59-5.82,5.77-6.49,9.77-1.48,8.83,5.94,17.31,14.28,19.04,1.57,.33,2.24-2.08,.66-2.41h0Z"/>
            <path class="cls-29" d="M81.54,161.56c-.82,.48-.97,1.62-.28,2.29s1.6,.35,2.38,.12c1.43-.43,2.83-1,4.17-1.68,2.6-1.31,4.98-3.1,6.99-5.22,.94-.99-.29-2.77-1.51-1.96-.58,.38-.98,.89-1.16,1.56-.41,1.56,2,2.22,2.41,.66,0-.04-.03-.04,.01-.07l-1.51-1.96c-1.49,1.57-3.17,2.93-5.03,4.04-.9,.53-1.83,1.01-2.79,1.42-.49,.21-.98,.39-1.48,.56-.28,.09-.55,.18-.83,.26-.12,.04-.25,.07-.37,.11-.06,.02-.12,.03-.19,.05-.17,.04-.12,.05,.15,.02l.55,.32-.07-.08,.32,.55-.02-.11v.66l.03-.09-.57,.75,.08-.05c1.39-.81,.13-2.97-1.26-2.16h0Z"/>
            <path class="cls-29" d="M85.75,166.75l-.06,.02c-.64,.19-1.06,.88-.87,1.54,.23,.77,1.04,1.23,1.83,1.03,.64-.16,1.28-.5,1.88-.76,1.2-.51,2.38-1.08,3.52-1.72,2.32-1.28,4.5-2.81,6.52-4.53l-1.77-1.77c-.16,.19-.31,.37-.47,.56-.43,.52-.51,1.26,0,1.77,.45,.45,1.33,.52,1.77,0,.16-.19,.31-.37,.47-.56,1.04-1.23-.53-2.81-1.77-1.77-1.61,1.36-3.33,2.57-5.14,3.64-.92,.54-1.87,1.05-2.84,1.51-.48,.23-.97,.46-1.46,.66-.21,.09-.42,.17-.63,.26-.09,.03-.58,.25-.52,.25l.63,.17,.09,.09,.32,.55-.02-.05-.87,1.54,.06-.02c1.54-.45,.89-2.86-.66-2.41h0Z"/>
            <path class="cls-29" d="M96.67,170.91c-.88-.56-1.97-.36-2.74,.28s-1.03,1.69-.76,2.64c.55,1.92,2.84,2.94,4.65,2.17s2.42-3.18,1.01-4.58c-1.27-1.26-3.58-.92-5.03-.15-1,.53-1.42,1.63-1.18,2.71,.18,.86,.74,1.62,1.41,2.17,1.47,1.2,3.43,1.56,5.16,.71s2.54-2.6,2.2-4.4c-.15-.79-.59-1.57-1.19-2.09-.78-.66-1.73-.91-2.73-.98-1.64-.12-3.54,.28-4.68,1.54s-1.42,3.11-.79,4.66c.66,1.65,2.12,2.72,3.88,2.96s3.42-.34,4.66-1.54,2.04-2.99,2.03-4.71c0-1.98-1.45-3.44-3.37-3.7-1.81-.25-3.54,.64-5,1.62s-2.82,2.37-2.69,4.24,1.51,3.18,3.15,3.79c1.5,.56,3.26,.26,4.63-.52s2.5-2.13,2.91-3.68c.21-.81,.27-1.74-.03-2.53-.36-.96-1.09-1.56-2.05-1.87-.31-.1-.63-.16-.94-.25-.14-.04-.29-.08-.43-.14,.23,.1,0,0-.04-.04-.16-.14,.21,.2-.05-.04-.49-.46-1.28-.49-1.77,0s-.49,1.3,0,1.77c.46,.43,1.02,.7,1.62,.86,.24,.07,.48,.12,.72,.18,.11,.03,.22,.06,.32,.1,.18,.06-.16-.09,0,0,.06,.04,.13,.07,.19,.11,.12,.08-.02-.01-.04-.02,.01,.01,.12,.15,.06,.06-.06-.11,.04,.08,.04,.07-.01-.05-.05-.21,.01,.04,.02,.06,.06,.35,.05,.15,.01,.15,.01,.29,0,.44-.02,.29-.18,.81-.34,1.11-.11,.2-.23,.4-.38,.59,.13-.16-.1,.11-.14,.15-.09,.1-.19,.2-.29,.29-.09,.08-.17,.16-.27,.23,.17-.13-.12,.08-.17,.11-.21,.14-.44,.26-.67,.36,.2-.09-.13,.04-.19,.06-.11,.04-.22,.07-.33,.1s-.23,.05-.34,.07c-.2,.04,.19-.01-.01,0-.08,0-.15,.01-.23,.01-.12,0-.23,0-.35,0-.06,0-.35-.04-.24-.02,.15,.03-.09-.02-.13-.03-.06-.01-.12-.03-.17-.05s-.12-.04-.17-.05c-.02,0-.24-.09-.13-.05,.06,.03-.23-.12-.29-.15-.1-.06-.21-.13-.31-.2,.15,.11-.08-.07-.12-.11-.12-.11-.23-.22-.32-.34,.12,.15-.04-.08-.07-.13-.04-.06-.15-.31-.07-.11-.05-.12-.08-.25-.11-.38-.04-.14,0,.03,0,.05,0-.08,0-.15,0-.23-.01-.21-.04,.07,.01-.15,.02-.08,.11-.37,.09-.31-.03,.07,.1-.18,.13-.23s.24-.32,.13-.19c.41-.49,.7-.69,1.16-1,.51-.34,1.03-.65,1.58-.91,.4-.19,1.05-.38,1.46-.39,.12,0,.24,0,.36,.02-.21-.02,.07,.02,.14,.04,.12,.03,.23,.06,.34,.11-.19-.07,0,0,.03,.02,.07,.04,.14,.08,.2,.12,.18,.1-.03-.06,.11,.09,.04,.04,.08,.08,.12,.12,.13,.14-.08-.14,.02,.02,.03,.05,.06,.1,.09,.15-.01-.02-.05-.15,0,0,.02,.06,.1,.4,.08,.28,.02,.16,.01,.33,0,.5,0,.07,0,.14-.02,.21,0-.03,.02-.12,0,.01-.05,.29-.12,.58-.22,.87-.11,.31-.07,.23-.23,.52-.11,.21-.34,.57-.42,.68-.27,.35-.64,.68-1.01,.9-.13,.07-.26,.14-.39,.2,.17-.08-.1,.03-.15,.05-.12,.04-.23,.07-.35,.1-.08,.02-.16,.03-.24,.05,.13-.02,.06,0-.03,0-.26,.02-.52,.02-.79,0-.15-.01,0,0,.03,0-.06-.01-.12-.02-.18-.03-.14-.03-.27-.06-.41-.11-.06-.02-.11-.04-.17-.06-.19-.07,.15,.08-.03-.02-.11-.05-.21-.11-.31-.17-.05-.03-.27-.19-.22-.14,.1,.08-.05-.05-.06-.06-.07-.07-.14-.14-.21-.21-.04-.04-.08-.09-.11-.13,.02,.02,.1,.14,.03,.02-.06-.1-.12-.19-.18-.3-.03-.05-.05-.1-.08-.16,.09,.19,0,.02,0-.02-.04-.13-.08-.26-.11-.39-.01-.06-.02-.11-.03-.17,0,.02,.02,.19,0,.05-.01-.13-.02-.27-.02-.4,0-.08,.03-.34,0-.12,.02-.13,.05-.26,.09-.39,.02-.08,.15-.37,.05-.18,.05-.1,.11-.2,.17-.3,.11-.18-.07,.04,.08-.11,.06-.06,.12-.12,.18-.18,.04-.04,.14-.12,.03-.04,.19-.15,.42-.27,.64-.37-.17,.07,.17-.05,.23-.07,.14-.04,.29-.08,.43-.11,.06-.01,.13-.02,.19-.03,.21-.04-.17,.01,.05,0,.13-.01,.25-.02,.38-.03,.31-.01,.62,0,.93,.03,.15,.02,.05,0,.02,0,.07,.01,.14,.03,.21,.04,.14,.03,.28,.06,.41,.12,.14,.06,.05,.02,.03,.01,.08,.04,.15,.08,.22,.13-.17-.11,.08,.07,.13,.13,.04,.04,.08,.08,.11,.13-.02-.02-.1-.14-.03-.03s.14,.22,.19,.35c-.08-.19,0,.06,.03,.13,.01,.06,.03,.11,.04,.17,.04,.19,0-.19,0,0,0,.13,0,.26,0,.4,0-.21,0,.02-.03,.12-.01,.06-.11,.31-.03,.14-.06,.15-.15,.29-.24,.42,.1-.15-.07,.08-.11,.12-.04,.04-.26,.24-.11,.12-.11,.09-.24,.16-.36,.23-.05,.03-.11,.06-.16,.08,.12-.06,.04-.01-.04,.01-.12,.04-.23,.07-.35,.1-.22,.06-.09,.02-.03,.01-.06,0-.12,.01-.19,.01-.13,0-.26,0-.39,0-.15-.01-.02,0,.01,0-.11-.02-.21-.04-.32-.07-.07-.02-.31-.1-.28-.09s-.2-.1-.26-.13c-.31-.17-.35-.2-.58-.43-.05-.05-.23-.24-.21-.21,.07,.08-.05-.08-.05-.08-.05-.07-.09-.15-.13-.22,0,0-.08-.19-.04-.08s-.02-.09-.02-.09c0,0-.04-.21-.02-.08s-.06-.16,0-.02c.02,.05-.04,.09-.05,.13,.05-.23,.08-.07,.02-.03-.17,.11,.17-.07-.02,.02,.26-.11,.55-.18,.83-.25,.12-.03,.24-.05,.37-.08,.22-.05-.07-.01,.16-.02,.14,0,.28,0,.42,0s-.02-.01-.04-.02c.07,.01,.15,.04,.22,.05,.02,0,.19,.03,.06,.01-.12-.01,.03,0,.05,.04-.12-.25,.15,.19,.06,.06s.02,.05,.01,.05c-.03,0-.05-.2-.04-.05s0-.06,0-.07c0,.07,0,.14,0,.21-.02-.19,.03-.11,0-.01-.02,.05-.03,.1-.05,.16-.04,.14,.01-.03,.02-.05-.03,.05-.05,.1-.08,.14-.09,.12,.04-.03,.03-.04,0,.01-.21,.19,.01,.02-.05,.04-.1,.07-.16,.1-.16,.1,.14-.04-.04,.02-.06,.02-.12,.03-.18,.05,.02,0,.18-.01,.03,0-.07,0-.43-.02-.22,.02-.12-.02-.24-.05-.36-.09,.16,.05-.15-.08-.2-.12-.11-.07-.03-.01,0,0-.07-.05-.13-.12-.19-.18,.09,.1-.08-.12-.11-.17,.07,.13-.04-.12-.05-.18,0,.04,0,.16,.01,.02,0-.09,0-.08,0,.02l.03-.1c-.07-.04,.03,.22-.01,.07-.03-.09,.06,.01-.03,.05,.09-.04,.05-.12,.03-.04l-.04,.04,.09-.05s-.27,.11-.01,.02c-.01,0-.23,.02-.08,.02s-.08-.01-.09-.01c-.04,0-.23-.13-.03,0,.57,.36,1.38,.12,1.71-.45,.35-.6,.12-1.35-.45-1.71h0Z"/>
          </g>
          <g>
            <path class="cls-29" d="M7.15,191.84c-5.41-1.12-10.11-5.11-11.89-10.38-1.03-3.06-1.02-6.23,.63-9.07,1.52-2.62,3.92-4.75,6.27-6.62,1.17-.94,2.48-1.79,3.97-2.1,1.84-.38,3.73,.05,5.53,.44,2.55,.56,5.37,1.17,7.45,2.87,2.5,2.04,2.41,5.36,2.98,8.28,.63,3.26,1.51,6.92-1.02,9.62-4.51,4.81-16.61,2.91-17.04-4.63l-.37,.88c-.25,.22-.21-.03,.06,.22,.16,.14,.41,.25,.6,.36,.43,.26,.85,.53,1.34,.67,.93,.28,1.92,.2,2.81-.17,1.83-.77,2.81-2.73,2.62-4.67l-.62,1.08s.71,.4,.8,.44c.42,.2,.86,.36,1.33,.38,.75,.03,1.43-.25,1.93-.82,.44-.5,.63-1.15,.78-1.79,.08-.34,.16-.69,.24-1.03,.02-.11,.06-.19,.11-.28,.07-.16-.36,.09,.06,.02l-1.41-.57c.44,1.04,.71,2.12,.89,3.23,.25,1.58,2.66,.91,2.41-.66-.21-1.34-.61-2.58-1.14-3.83-.23-.54-.91-.66-1.41-.57-1.64,.27-1.85,1.96-2.21,3.27-.04,.14-.08,.5-.21,.6,.16-.12-.09-.09-.25-.17-.18-.09-.36-.19-.54-.27-.9-.43-1.72-.6-2.64-.1-.36,.2-.66,.66-.62,1.08,.08,.87-.08,1.82-.92,2.29-1.04,.59-1.8-.17-2.68-.64-1.52-.82-3.63-.48-3.41,1.64,.43,4.14,3.77,7.08,7.54,8.34,4.01,1.33,8.9,1.24,12.4-1.36s4.16-6.72,3.43-10.92c-.4-2.29-.7-4.67-1.23-6.93-.44-1.85-1.37-3.51-2.83-4.74-2.83-2.39-6.82-3.26-10.38-3.88-2.29-.4-4.55-.45-6.72,.49-1.91,.83-3.53,2.25-5.08,3.61-2.93,2.59-5.82,5.77-6.49,9.77-1.48,8.83,5.94,17.31,14.28,19.04,1.57,.33,2.24-2.08,.66-2.41h0Z"/>
            <path class="cls-29" d="M10.5,195.41c-.82,.48-.97,1.62-.28,2.29s1.6,.35,2.38,.12c1.43-.43,2.83-1,4.17-1.68,2.6-1.31,4.98-3.1,6.99-5.22,.94-.99-.29-2.77-1.51-1.96-.58,.38-.98,.89-1.16,1.56-.41,1.56,2,2.22,2.41,.66,0-.04-.03-.04,.01-.07l-1.51-1.96c-1.49,1.57-3.17,2.93-5.03,4.04-.9,.53-1.83,1.01-2.79,1.42-.49,.21-.98,.39-1.48,.56-.28,.09-.55,.18-.83,.26-.12,.04-.25,.07-.37,.11-.06,.02-.12,.03-.19,.05-.17,.04-.12,.05,.15,.02l.55,.32-.07-.08,.32,.55-.02-.11v.66l.03-.09-.57,.75,.08-.05c1.39-.81,.13-2.97-1.26-2.16h0Z"/>
            <path class="cls-29" d="M14.71,200.6l-.06,.02c-.64,.19-1.06,.88-.87,1.54,.23,.77,1.04,1.23,1.83,1.03,.64-.16,1.28-.5,1.88-.76,1.2-.51,2.38-1.08,3.52-1.72,2.32-1.28,4.5-2.81,6.52-4.53l-1.77-1.77c-.16,.19-.31,.37-.47,.56-.43,.52-.51,1.26,0,1.77,.45,.45,1.33,.52,1.77,0,.16-.19,.31-.37,.47-.56,1.04-1.23-.53-2.81-1.77-1.77-1.61,1.36-3.33,2.57-5.14,3.64-.92,.54-1.87,1.05-2.84,1.51-.48,.23-.97,.46-1.46,.66-.21,.09-.42,.17-.63,.26-.09,.03-.58,.25-.52,.25l.63,.17,.09,.09,.32,.55-.02-.05-.87,1.54,.06-.02c1.54-.45,.89-2.86-.66-2.41h0Z"/>
            <path class="cls-29" d="M25.64,204.76c-.88-.56-1.97-.36-2.74,.28s-1.03,1.69-.76,2.64c.55,1.92,2.84,2.94,4.65,2.17s2.42-3.18,1.01-4.58c-1.27-1.26-3.58-.92-5.03-.15-1,.53-1.42,1.63-1.18,2.71,.18,.86,.74,1.62,1.41,2.17,1.47,1.2,3.43,1.56,5.16,.71s2.54-2.6,2.2-4.4c-.15-.79-.59-1.57-1.19-2.09-.78-.66-1.73-.91-2.73-.98-1.64-.12-3.54,.28-4.68,1.54s-1.42,3.11-.79,4.66c.66,1.65,2.12,2.72,3.88,2.96s3.42-.34,4.66-1.54,2.04-2.99,2.03-4.71c0-1.98-1.45-3.44-3.37-3.7-1.81-.25-3.54,.64-5,1.62s-2.82,2.37-2.69,4.24,1.51,3.18,3.15,3.79c1.5,.56,3.26,.26,4.63-.52s2.5-2.13,2.91-3.68c.21-.81,.27-1.74-.03-2.53-.36-.96-1.09-1.56-2.05-1.87-.31-.1-.63-.16-.94-.25-.14-.04-.29-.08-.43-.14,.23,.1,0,0-.04-.04-.16-.14,.21,.2-.05-.04-.49-.46-1.28-.49-1.77,0s-.49,1.3,0,1.77c.46,.43,1.02,.7,1.62,.86,.24,.07,.48,.12,.72,.18,.11,.03,.22,.06,.32,.1,.18,.06-.16-.09,0,0,.06,.04,.13,.07,.19,.11,.12,.08-.02-.01-.04-.02,.01,.01,.12,.15,.06,.06-.06-.11,.04,.08,.04,.07-.01-.05-.05-.21,.01,.04,.02,.06,.06,.35,.05,.15,.01,.15,.01,.29,0,.44-.02,.29-.18,.81-.34,1.11-.11,.2-.23,.4-.38,.59,.13-.16-.1,.11-.14,.15-.09,.1-.19,.2-.29,.29-.09,.08-.17,.16-.27,.23,.17-.13-.12,.08-.17,.11-.21,.14-.44,.26-.67,.36,.2-.09-.13,.04-.19,.06-.11,.04-.22,.07-.33,.1s-.23,.05-.34,.07c-.2,.04,.19-.01-.01,0-.08,0-.15,.01-.23,.01-.12,0-.23,0-.35,0-.06,0-.35-.04-.24-.02,.15,.03-.09-.02-.13-.03-.06-.01-.12-.03-.17-.05s-.12-.04-.17-.05c-.02,0-.24-.09-.13-.05,.06,.03-.23-.12-.29-.15-.1-.06-.21-.13-.31-.2,.15,.11-.08-.07-.12-.11-.12-.11-.23-.22-.32-.34,.12,.15-.04-.08-.07-.13-.04-.06-.15-.31-.07-.11-.05-.12-.08-.25-.11-.38-.04-.14,0,.03,0,.05,0-.08,0-.15,0-.23-.01-.21-.04,.07,.01-.15,.02-.08,.11-.37,.09-.31-.03,.07,.1-.18,.13-.23s.24-.32,.13-.19c.41-.49,.7-.69,1.16-1,.51-.34,1.03-.65,1.58-.91,.4-.19,1.05-.38,1.46-.39,.12,0,.24,0,.36,.02-.21-.02,.07,.02,.14,.04,.12,.03,.23,.06,.34,.11-.19-.07,0,0,.03,.02,.07,.04,.14,.08,.2,.12,.18,.1-.03-.06,.11,.09,.04,.04,.08,.08,.12,.12,.13,.14-.08-.14,.02,.02,.03,.05,.06,.1,.09,.15-.01-.02-.05-.15,0,0,.02,.06,.1,.4,.08,.28,.02,.16,.01,.33,0,.5,0,.07,0,.14-.02,.21,0-.03,.02-.12,0,.01-.05,.29-.12,.58-.22,.87-.11,.31-.07,.23-.23,.52-.11,.21-.34,.57-.42,.68-.27,.35-.64,.68-1.01,.9-.13,.07-.26,.14-.39,.2,.17-.08-.1,.03-.15,.05-.12,.04-.23,.07-.35,.1-.08,.02-.16,.03-.24,.05,.13-.02,.06,0-.03,0-.26,.02-.52,.02-.79,0-.15-.01,0,0,.03,0-.06-.01-.12-.02-.18-.03-.14-.03-.27-.06-.41-.11-.06-.02-.11-.04-.17-.06-.19-.07,.15,.08-.03-.02-.11-.05-.21-.11-.31-.17-.05-.03-.27-.19-.22-.14,.1,.08-.05-.05-.06-.06-.07-.07-.14-.14-.21-.21-.04-.04-.08-.09-.11-.13,.02,.02,.1,.14,.03,.02-.06-.1-.12-.19-.18-.3-.03-.05-.05-.1-.08-.16,.09,.19,0,.02,0-.02-.04-.13-.08-.26-.11-.39-.01-.06-.02-.11-.03-.17,0,.02,.02,.19,0,.05-.01-.13-.02-.27-.02-.4,0-.08,.03-.34,0-.12,.02-.13,.05-.26,.09-.39,.02-.08,.15-.37,.05-.18,.05-.1,.11-.2,.17-.3,.11-.18-.07,.04,.08-.11,.06-.06,.12-.12,.18-.18,.04-.04,.14-.12,.03-.04,.19-.15,.42-.27,.64-.37-.17,.07,.17-.05,.23-.07,.14-.04,.29-.08,.43-.11,.06-.01,.13-.02,.19-.03,.21-.04-.17,.01,.05,0,.13-.01,.25-.02,.38-.03,.31-.01,.62,0,.93,.03,.15,.02,.05,0,.02,0,.07,.01,.14,.03,.21,.04,.14,.03,.28,.06,.41,.12,.14,.06,.05,.02,.03,.01,.08,.04,.15,.08,.22,.13-.17-.11,.08,.07,.13,.13,.04,.04,.08,.08,.11,.13-.02-.02-.1-.14-.03-.03s.14,.22,.19,.35c-.08-.19,0,.06,.03,.13,.01,.06,.03,.11,.04,.17,.04,.19,0-.19,0,0,0,.13,0,.26,0,.4,0-.21,0,.02-.03,.12-.01,.06-.11,.31-.03,.14-.06,.15-.15,.29-.24,.42,.1-.15-.07,.08-.11,.12-.04,.04-.26,.24-.11,.12-.11,.09-.24,.16-.36,.23-.05,.03-.11,.06-.16,.08,.12-.06,.04-.01-.04,.01-.12,.04-.23,.07-.35,.1-.22,.06-.09,.02-.03,.01-.06,0-.12,.01-.19,.01-.13,0-.26,0-.39,0-.15-.01-.02,0,.01,0-.11-.02-.21-.04-.32-.07-.07-.02-.31-.1-.28-.09s-.2-.1-.26-.13c-.31-.17-.35-.2-.58-.43-.05-.05-.23-.24-.21-.21,.07,.08-.05-.08-.05-.08-.05-.07-.09-.15-.13-.22,0,0-.08-.19-.04-.08s-.02-.09-.02-.09c0,0-.04-.21-.02-.08s-.06-.16,0-.02c.02,.05-.04,.09-.05,.13,.05-.23,.08-.07,.02-.03-.17,.11,.17-.07-.02,.02,.26-.11,.55-.18,.83-.25,.12-.03,.24-.05,.37-.08,.22-.05-.07-.01,.16-.02,.14,0,.28,0,.42,0s-.02-.01-.04-.02c.07,.01,.15,.04,.22,.05,.02,0,.19,.03,.06,.01-.12-.01,.03,0,.05,.04-.12-.25,.15,.19,.06,.06s.02,.05,.01,.05c-.03,0-.05-.2-.04-.05s0-.06,0-.07c0,.07,0,.14,0,.21-.02-.19,.03-.11,0-.01-.02,.05-.03,.1-.05,.16-.04,.14,.01-.03,.02-.05-.03,.05-.05,.1-.08,.14-.09,.12,.04-.03,.03-.04,0,.01-.21,.19,.01,.02-.05,.04-.1,.07-.16,.1-.16,.1,.14-.04-.04,.02-.06,.02-.12,.03-.18,.05,.02,0,.18-.01,.03,0-.07,0-.43-.02-.22,.02-.12-.02-.24-.05-.36-.09,.16,.05-.15-.08-.2-.12-.11-.07-.03-.01,0,0-.07-.05-.13-.12-.19-.18,.09,.1-.08-.12-.11-.17,.07,.13-.04-.12-.05-.18,0,.04,0,.16,.01,.02,0-.09,0-.08,0,.02l.03-.1c-.07-.04,.03,.22-.01,.07-.03-.09,.06,.01-.03,.05,.09-.04,.05-.12,.03-.04l-.04,.04,.09-.05s-.27,.11-.01,.02c-.01,0-.23,.02-.08,.02s-.08-.01-.09-.01c-.04,0-.23-.13-.03,0,.57,.36,1.38,.12,1.71-.45,.35-.6,.12-1.35-.45-1.71h0Z"/>
          </g>
          <g>
            <path class="cls-29" d="M138.8,222.23c-5.41-1.12-10.11-5.11-11.89-10.38-1.03-3.06-1.02-6.23,.63-9.07,1.52-2.62,3.92-4.75,6.27-6.62,1.17-.94,2.48-1.79,3.97-2.1,1.84-.38,3.73,.05,5.53,.44,2.55,.56,5.37,1.17,7.45,2.87,2.5,2.04,2.41,5.36,2.98,8.28,.63,3.26,1.51,6.92-1.02,9.62-4.51,4.81-16.61,2.91-17.04-4.63l-.37,.88c-.25,.22-.21-.03,.06,.22,.16,.14,.41,.25,.6,.36,.43,.26,.85,.53,1.34,.67,.93,.28,1.92,.2,2.81-.17,1.83-.77,2.81-2.73,2.62-4.67l-.62,1.08s.71,.4,.8,.44c.42,.2,.86,.36,1.33,.38,.75,.03,1.43-.25,1.93-.82,.44-.5,.63-1.15,.78-1.79,.08-.34,.16-.69,.24-1.03,.02-.11,.06-.19,.11-.28,.07-.16-.36,.09,.06,.02l-1.41-.57c.44,1.04,.71,2.12,.89,3.23,.25,1.58,2.66,.91,2.41-.66-.21-1.34-.61-2.58-1.14-3.83-.23-.54-.91-.66-1.41-.57-1.64,.27-1.85,1.96-2.21,3.27-.04,.14-.08,.5-.21,.6,.16-.12-.09-.09-.25-.17-.18-.09-.36-.19-.54-.27-.9-.43-1.72-.6-2.64-.1-.36,.2-.66,.66-.62,1.08,.08,.87-.08,1.82-.92,2.29-1.04,.59-1.8-.17-2.68-.64-1.52-.82-3.63-.48-3.41,1.64,.43,4.14,3.77,7.08,7.54,8.34,4.01,1.33,8.9,1.24,12.4-1.36s4.16-6.72,3.43-10.92c-.4-2.29-.7-4.67-1.23-6.93-.44-1.85-1.37-3.51-2.83-4.74-2.83-2.39-6.82-3.26-10.38-3.88-2.29-.4-4.55-.45-6.72,.49-1.91,.83-3.53,2.25-5.08,3.61-2.93,2.59-5.82,5.77-6.49,9.77-1.48,8.83,5.94,17.31,14.28,19.04,1.57,.33,2.24-2.08,.66-2.41h0Z"/>
            <path class="cls-29" d="M142.15,225.81c-.82,.48-.97,1.62-.28,2.29s1.6,.35,2.38,.12c1.43-.43,2.83-1,4.17-1.68,2.6-1.31,4.98-3.1,6.99-5.22,.94-.99-.29-2.77-1.51-1.96-.58,.38-.98,.89-1.16,1.56-.41,1.56,2,2.22,2.41,.66,0-.04-.03-.04,.01-.07l-1.51-1.96c-1.49,1.57-3.17,2.93-5.03,4.04-.9,.53-1.83,1.01-2.79,1.42-.49,.21-.98,.39-1.48,.56-.28,.09-.55,.18-.83,.26-.12,.04-.25,.07-.37,.11-.06,.02-.12,.03-.19,.05-.17,.04-.12,.05,.15,.02l.55,.32-.07-.08,.32,.55-.02-.11v.66l.03-.09-.57,.75,.08-.05c1.39-.81,.13-2.97-1.26-2.16h0Z"/>
            <path class="cls-29" d="M146.36,230.99l-.06,.02c-.64,.19-1.06,.88-.87,1.54,.23,.77,1.04,1.23,1.83,1.03,.64-.16,1.28-.5,1.88-.76,1.2-.51,2.38-1.08,3.52-1.72,2.32-1.28,4.5-2.81,6.52-4.53l-1.77-1.77c-.16,.19-.31,.37-.47,.56-.43,.52-.51,1.26,0,1.77,.45,.45,1.33,.52,1.77,0,.16-.19,.31-.37,.47-.56,1.04-1.23-.53-2.81-1.77-1.77-1.61,1.36-3.33,2.57-5.14,3.64-.92,.54-1.87,1.05-2.84,1.51-.48,.23-.97,.46-1.46,.66-.21,.09-.42,.17-.63,.26-.09,.03-.58,.25-.52,.25l.63,.17,.09,.09,.32,.55-.02-.05-.87,1.54,.06-.02c1.54-.45,.89-2.86-.66-2.41h0Z"/>
            <path class="cls-29" d="M157.28,235.15c-.88-.56-1.97-.36-2.74,.28s-1.03,1.69-.76,2.64c.55,1.92,2.84,2.94,4.65,2.17s2.42-3.18,1.01-4.58c-1.27-1.26-3.58-.92-5.03-.15-1,.53-1.42,1.63-1.18,2.71,.18,.86,.74,1.62,1.41,2.17,1.47,1.2,3.43,1.56,5.16,.71s2.54-2.6,2.2-4.4c-.15-.79-.59-1.57-1.19-2.09-.78-.66-1.73-.91-2.73-.98-1.64-.12-3.54,.28-4.68,1.54s-1.42,3.11-.79,4.66c.66,1.65,2.12,2.72,3.88,2.96s3.42-.34,4.66-1.54,2.04-2.99,2.03-4.71c0-1.98-1.45-3.44-3.37-3.7-1.81-.25-3.54,.64-5,1.62s-2.82,2.37-2.69,4.24,1.51,3.18,3.15,3.79c1.5,.56,3.26,.26,4.63-.52s2.5-2.13,2.91-3.68c.21-.81,.27-1.74-.03-2.53-.36-.96-1.09-1.56-2.05-1.87-.31-.1-.63-.16-.94-.25-.14-.04-.29-.08-.43-.14,.23,.1,0,0-.04-.04-.16-.14,.21,.2-.05-.04-.49-.46-1.28-.49-1.77,0s-.49,1.3,0,1.77c.46,.43,1.02,.7,1.62,.86,.24,.07,.48,.12,.72,.18,.11,.03,.22,.06,.32,.1,.18,.06-.16-.09,0,0,.06,.04,.13,.07,.19,.11,.12,.08-.02-.01-.04-.02,.01,.01,.12,.15,.06,.06-.06-.11,.04,.08,.04,.07-.01-.05-.05-.21,.01,.04,.02,.06,.06,.35,.05,.15,.01,.15,.01,.29,0,.44-.02,.29-.18,.81-.34,1.11-.11,.2-.23,.4-.38,.59,.13-.16-.1,.11-.14,.15-.09,.1-.19,.2-.29,.29-.09,.08-.17,.16-.27,.23,.17-.13-.12,.08-.17,.11-.21,.14-.44,.26-.67,.36,.2-.09-.13,.04-.19,.06-.11,.04-.22,.07-.33,.1s-.23,.05-.34,.07c-.2,.04,.19-.01-.01,0-.08,0-.15,.01-.23,.01-.12,0-.23,0-.35,0-.06,0-.35-.04-.24-.02,.15,.03-.09-.02-.13-.03-.06-.01-.12-.03-.17-.05s-.12-.04-.17-.05c-.02,0-.24-.09-.13-.05,.06,.03-.23-.12-.29-.15-.1-.06-.21-.13-.31-.2,.15,.11-.08-.07-.12-.11-.12-.11-.23-.22-.32-.34,.12,.15-.04-.08-.07-.13-.04-.06-.15-.31-.07-.11-.05-.12-.08-.25-.11-.38-.04-.14,0,.03,0,.05,0-.08,0-.15,0-.23-.01-.21-.04,.07,.01-.15,.02-.08,.11-.37,.09-.31-.03,.07,.1-.18,.13-.23s.24-.32,.13-.19c.41-.49,.7-.69,1.16-1,.51-.34,1.03-.65,1.58-.91,.4-.19,1.05-.38,1.46-.39,.12,0,.24,0,.36,.02-.21-.02,.07,.02,.14,.04,.12,.03,.23,.06,.34,.11-.19-.07,0,0,.03,.02,.07,.04,.14,.08,.2,.12,.18,.1-.03-.06,.11,.09,.04,.04,.08,.08,.12,.12,.13,.14-.08-.14,.02,.02,.03,.05,.06,.1,.09,.15-.01-.02-.05-.15,0,0,.02,.06,.1,.4,.08,.28,.02,.16,.01,.33,0,.5,0,.07,0,.14-.02,.21,0-.03,.02-.12,0,.01-.05,.29-.12,.58-.22,.87-.11,.31-.07,.23-.23,.52-.11,.21-.34,.57-.42,.68-.27,.35-.64,.68-1.01,.9-.13,.07-.26,.14-.39,.2,.17-.08-.1,.03-.15,.05-.12,.04-.23,.07-.35,.1-.08,.02-.16,.03-.24,.05,.13-.02,.06,0-.03,0-.26,.02-.52,.02-.79,0-.15-.01,0,0,.03,0-.06-.01-.12-.02-.18-.03-.14-.03-.27-.06-.41-.11-.06-.02-.11-.04-.17-.06-.19-.07,.15,.08-.03-.02-.11-.05-.21-.11-.31-.17-.05-.03-.27-.19-.22-.14,.1,.08-.05-.05-.06-.06-.07-.07-.14-.14-.21-.21-.04-.04-.08-.09-.11-.13,.02,.02,.1,.14,.03,.02-.06-.1-.12-.19-.18-.3-.03-.05-.05-.1-.08-.16,.09,.19,0,.02,0-.02-.04-.13-.08-.26-.11-.39-.01-.06-.02-.11-.03-.17,0,.02,.02,.19,0,.05-.01-.13-.02-.27-.02-.4,0-.08,.03-.34,0-.12,.02-.13,.05-.26,.09-.39,.02-.08,.15-.37,.05-.18,.05-.1,.11-.2,.17-.3,.11-.18-.07,.04,.08-.11,.06-.06,.12-.12,.18-.18,.04-.04,.14-.12,.03-.04,.19-.15,.42-.27,.64-.37-.17,.07,.17-.05,.23-.07,.14-.04,.29-.08,.43-.11,.06-.01,.13-.02,.19-.03,.21-.04-.17,.01,.05,0,.13-.01,.25-.02,.38-.03,.31-.01,.62,0,.93,.03,.15,.02,.05,0,.02,0,.07,.01,.14,.03,.21,.04,.14,.03,.28,.06,.41,.12,.14,.06,.05,.02,.03,.01,.08,.04,.15,.08,.22,.13-.17-.11,.08,.07,.13,.13,.04,.04,.08,.08,.11,.13-.02-.02-.1-.14-.03-.03s.14,.22,.19,.35c-.08-.19,0,.06,.03,.13,.01,.06,.03,.11,.04,.17,.04,.19,0-.19,0,0,0,.13,0,.26,0,.4,0-.21,0,.02-.03,.12-.01,.06-.11,.31-.03,.14-.06,.15-.15,.29-.24,.42,.1-.15-.07,.08-.11,.12-.04,.04-.26,.24-.11,.12-.11,.09-.24,.16-.36,.23-.05,.03-.11,.06-.16,.08,.12-.06,.04-.01-.04,.01-.12,.04-.23,.07-.35,.1-.22,.06-.09,.02-.03,.01-.06,0-.12,.01-.19,.01-.13,0-.26,0-.39,0-.15-.01-.02,0,.01,0-.11-.02-.21-.04-.32-.07-.07-.02-.31-.1-.28-.09s-.2-.1-.26-.13c-.31-.17-.35-.2-.58-.43-.05-.05-.23-.24-.21-.21,.07,.08-.05-.08-.05-.08-.05-.07-.09-.15-.13-.22,0,0-.08-.19-.04-.08s-.02-.09-.02-.09c0,0-.04-.21-.02-.08s-.06-.16,0-.02c.02,.05-.04,.09-.05,.13,.05-.23,.08-.07,.02-.03-.17,.11,.17-.07-.02,.02,.26-.11,.55-.18,.83-.25,.12-.03,.24-.05,.37-.08,.22-.05-.07-.01,.16-.02,.14,0,.28,0,.42,0s-.02-.01-.04-.02c.07,.01,.15,.04,.22,.05,.02,0,.19,.03,.06,.01-.12-.01,.03,0,.05,.04-.12-.25,.15,.19,.06,.06s.02,.05,.01,.05c-.03,0-.05-.2-.04-.05s0-.06,0-.07c0,.07,0,.14,0,.21-.02-.19,.03-.11,0-.01-.02,.05-.03,.1-.05,.16-.04,.14,.01-.03,.02-.05-.03,.05-.05,.1-.08,.14-.09,.12,.04-.03,.03-.04,0,.01-.21,.19,.01,.02-.05,.04-.1,.07-.16,.1-.16,.1,.14-.04-.04,.02-.06,.02-.12,.03-.18,.05,.02,0,.18-.01,.03,0-.07,0-.43-.02-.22,.02-.12-.02-.24-.05-.36-.09,.16,.05-.15-.08-.2-.12-.11-.07-.03-.01,0,0-.07-.05-.13-.12-.19-.18,.09,.1-.08-.12-.11-.17,.07,.13-.04-.12-.05-.18,0,.04,0,.16,.01,.02,0-.09,0-.08,0,.02l.03-.1c-.07-.04,.03,.22-.01,.07-.03-.09,.06,.01-.03,.05,.09-.04,.05-.12,.03-.04l-.04,.04,.09-.05s-.27,.11-.01,.02c-.01,0-.23,.02-.08,.02s-.08-.01-.09-.01c-.04,0-.23-.13-.03,0,.57,.36,1.38,.12,1.71-.45,.35-.6,.12-1.35-.45-1.71h0Z"/>
          </g>
          <g>
            <path class="cls-29" d="M68.21,240.76c-5.41-1.12-10.11-5.11-11.89-10.38-1.03-3.06-1.02-6.23,.63-9.07,1.52-2.62,3.92-4.75,6.27-6.62,1.17-.94,2.48-1.79,3.97-2.1,1.84-.38,3.73,.05,5.53,.44,2.55,.56,5.37,1.17,7.45,2.87,2.5,2.04,2.41,5.36,2.98,8.28,.63,3.26,1.51,6.92-1.02,9.62-4.51,4.81-16.61,2.91-17.04-4.63l-.37,.88c-.25,.22-.21-.03,.06,.22,.16,.14,.41,.25,.6,.36,.43,.26,.85,.53,1.34,.67,.93,.28,1.92,.2,2.81-.17,1.83-.77,2.81-2.73,2.62-4.67l-.62,1.08s.71,.4,.8,.44c.42,.2,.86,.36,1.33,.38,.75,.03,1.43-.25,1.93-.82,.44-.5,.63-1.15,.78-1.79,.08-.34,.16-.69,.24-1.03,.02-.11,.06-.19,.11-.28,.07-.16-.36,.09,.06,.02l-1.41-.57c.44,1.04,.71,2.12,.89,3.23,.25,1.58,2.66,.91,2.41-.66-.21-1.34-.61-2.58-1.14-3.83-.23-.54-.91-.66-1.41-.57-1.64,.27-1.85,1.96-2.21,3.27-.04,.14-.08,.5-.21,.6,.16-.12-.09-.09-.25-.17-.18-.09-.36-.19-.54-.27-.9-.43-1.72-.6-2.64-.1-.36,.2-.66,.66-.62,1.08,.08,.87-.08,1.82-.92,2.29-1.04,.59-1.8-.17-2.68-.64-1.52-.82-3.63-.48-3.41,1.64,.43,4.14,3.77,7.08,7.54,8.34,4.01,1.33,8.9,1.24,12.4-1.36s4.16-6.72,3.43-10.92c-.4-2.29-.7-4.67-1.23-6.93-.44-1.85-1.37-3.51-2.83-4.74-2.83-2.39-6.82-3.26-10.38-3.88-2.29-.4-4.55-.45-6.72,.49-1.91,.83-3.53,2.25-5.08,3.61-2.93,2.59-5.82,5.77-6.49,9.77-1.48,8.83,5.94,17.31,14.28,19.04,1.57,.33,2.24-2.08,.66-2.41h0Z"/>
            <path class="cls-29" d="M71.56,244.34c-.82,.48-.97,1.62-.28,2.29s1.6,.35,2.38,.12c1.43-.43,2.83-1,4.17-1.68,2.6-1.31,4.98-3.1,6.99-5.22,.94-.99-.29-2.77-1.51-1.96-.58,.38-.98,.89-1.16,1.56-.41,1.56,2,2.22,2.41,.66,0-.04-.03-.04,.01-.07l-1.51-1.96c-1.49,1.57-3.17,2.93-5.03,4.04-.9,.53-1.83,1.01-2.79,1.42-.49,.21-.98,.39-1.48,.56-.28,.09-.55,.18-.83,.26-.12,.04-.25,.07-.37,.11-.06,.02-.12,.03-.19,.05-.17,.04-.12,.05,.15,.02l.55,.32-.07-.08,.32,.55-.02-.11v.66l.03-.09-.57,.75,.08-.05c1.39-.81,.13-2.97-1.26-2.16h0Z"/>
            <path class="cls-29" d="M75.76,249.52l-.06,.02c-.64,.19-1.06,.88-.87,1.54,.23,.77,1.04,1.23,1.83,1.03,.64-.16,1.28-.5,1.88-.76,1.2-.51,2.38-1.08,3.52-1.72,2.32-1.28,4.5-2.81,6.52-4.53l-1.77-1.77c-.16,.19-.31,.37-.47,.56-.43,.52-.51,1.26,0,1.77,.45,.45,1.33,.52,1.77,0,.16-.19,.31-.37,.47-.56,1.04-1.23-.53-2.81-1.77-1.77-1.61,1.36-3.33,2.57-5.14,3.64-.92,.54-1.87,1.05-2.84,1.51-.48,.23-.97,.46-1.46,.66-.21,.09-.42,.17-.63,.26-.09,.03-.58,.25-.52,.25l.63,.17,.09,.09,.32,.55-.02-.05-.87,1.54,.06-.02c1.54-.45,.89-2.86-.66-2.41h0Z"/>
            <path class="cls-29" d="M86.69,253.69c-.88-.56-1.97-.36-2.74,.28s-1.03,1.69-.76,2.64c.55,1.92,2.84,2.94,4.65,2.17s2.42-3.18,1.01-4.58c-1.27-1.26-3.58-.92-5.03-.15-1,.53-1.42,1.63-1.18,2.71,.18,.86,.74,1.62,1.41,2.17,1.47,1.2,3.43,1.56,5.16,.71s2.54-2.6,2.2-4.4c-.15-.79-.59-1.57-1.19-2.09-.78-.66-1.73-.91-2.73-.98-1.64-.12-3.54,.28-4.68,1.54s-1.42,3.11-.79,4.66c.66,1.65,2.12,2.72,3.88,2.96s3.42-.34,4.66-1.54,2.04-2.99,2.03-4.71c0-1.98-1.45-3.44-3.37-3.7-1.81-.25-3.54,.64-5,1.62s-2.82,2.37-2.69,4.24,1.51,3.18,3.15,3.79c1.5,.56,3.26,.26,4.63-.52s2.5-2.13,2.91-3.68c.21-.81,.27-1.74-.03-2.53-.36-.96-1.09-1.56-2.05-1.87-.31-.1-.63-.16-.94-.25-.14-.04-.29-.08-.43-.14,.23,.1,0,0-.04-.04-.16-.14,.21,.2-.05-.04-.49-.46-1.28-.49-1.77,0s-.49,1.3,0,1.77c.46,.43,1.02,.7,1.62,.86,.24,.07,.48,.12,.72,.18,.11,.03,.22,.06,.32,.1,.18,.06-.16-.09,0,0,.06,.04,.13,.07,.19,.11,.12,.08-.02-.01-.04-.02,.01,.01,.12,.15,.06,.06-.06-.11,.04,.08,.04,.07-.01-.05-.05-.21,.01,.04,.02,.06,.06,.35,.05,.15,.01,.15,.01,.29,0,.44-.02,.29-.18,.81-.34,1.11-.11,.2-.23,.4-.38,.59,.13-.16-.1,.11-.14,.15-.09,.1-.19,.2-.29,.29-.09,.08-.17,.16-.27,.23,.17-.13-.12,.08-.17,.11-.21,.14-.44,.26-.67,.36,.2-.09-.13,.04-.19,.06-.11,.04-.22,.07-.33,.1s-.23,.05-.34,.07c-.2,.04,.19-.01-.01,0-.08,0-.15,.01-.23,.01-.12,0-.23,0-.35,0-.06,0-.35-.04-.24-.02,.15,.03-.09-.02-.13-.03-.06-.01-.12-.03-.17-.05s-.12-.04-.17-.05c-.02,0-.24-.09-.13-.05,.06,.03-.23-.12-.29-.15-.1-.06-.21-.13-.31-.2,.15,.11-.08-.07-.12-.11-.12-.11-.23-.22-.32-.34,.12,.15-.04-.08-.07-.13-.04-.06-.15-.31-.07-.11-.05-.12-.08-.25-.11-.38-.04-.14,0,.03,0,.05,0-.08,0-.15,0-.23-.01-.21-.04,.07,.01-.15,.02-.08,.11-.37,.09-.31-.03,.07,.1-.18,.13-.23s.24-.32,.13-.19c.41-.49,.7-.69,1.16-1,.51-.34,1.03-.65,1.58-.91,.4-.19,1.05-.38,1.46-.39,.12,0,.24,0,.36,.02-.21-.02,.07,.02,.14,.04,.12,.03,.23,.06,.34,.11-.19-.07,0,0,.03,.02,.07,.04,.14,.08,.2,.12,.18,.1-.03-.06,.11,.09,.04,.04,.08,.08,.12,.12,.13,.14-.08-.14,.02,.02,.03,.05,.06,.1,.09,.15-.01-.02-.05-.15,0,0,.02,.06,.1,.4,.08,.28,.02,.16,.01,.33,0,.5,0,.07,0,.14-.02,.21,0-.03,.02-.12,0,.01-.05,.29-.12,.58-.22,.87-.11,.31-.07,.23-.23,.52-.11,.21-.34,.57-.42,.68-.27,.35-.64,.68-1.01,.9-.13,.07-.26,.14-.39,.2,.17-.08-.1,.03-.15,.05-.12,.04-.23,.07-.35,.1-.08,.02-.16,.03-.24,.05,.13-.02,.06,0-.03,0-.26,.02-.52,.02-.79,0-.15-.01,0,0,.03,0-.06-.01-.12-.02-.18-.03-.14-.03-.27-.06-.41-.11-.06-.02-.11-.04-.17-.06-.19-.07,.15,.08-.03-.02-.11-.05-.21-.11-.31-.17-.05-.03-.27-.19-.22-.14,.1,.08-.05-.05-.06-.06-.07-.07-.14-.14-.21-.21-.04-.04-.08-.09-.11-.13,.02,.02,.1,.14,.03,.02-.06-.1-.12-.19-.18-.3-.03-.05-.05-.1-.08-.16,.09,.19,0,.02,0-.02-.04-.13-.08-.26-.11-.39-.01-.06-.02-.11-.03-.17,0,.02,.02,.19,0,.05-.01-.13-.02-.27-.02-.4,0-.08,.03-.34,0-.12,.02-.13,.05-.26,.09-.39,.02-.08,.15-.37,.05-.18,.05-.1,.11-.2,.17-.3,.11-.18-.07,.04,.08-.11,.06-.06,.12-.12,.18-.18,.04-.04,.14-.12,.03-.04,.19-.15,.42-.27,.64-.37-.17,.07,.17-.05,.23-.07,.14-.04,.29-.08,.43-.11,.06-.01,.13-.02,.19-.03,.21-.04-.17,.01,.05,0,.13-.01,.25-.02,.38-.03,.31-.01,.62,0,.93,.03,.15,.02,.05,0,.02,0,.07,.01,.14,.03,.21,.04,.14,.03,.28,.06,.41,.12,.14,.06,.05,.02,.03,.01,.08,.04,.15,.08,.22,.13-.17-.11,.08,.07,.13,.13,.04,.04,.08,.08,.11,.13-.02-.02-.1-.14-.03-.03s.14,.22,.19,.35c-.08-.19,0,.06,.03,.13,.01,.06,.03,.11,.04,.17,.04,.19,0-.19,0,0,0,.13,0,.26,0,.4,0-.21,0,.02-.03,.12-.01,.06-.11,.31-.03,.14-.06,.15-.15,.29-.24,.42,.1-.15-.07,.08-.11,.12-.04,.04-.26,.24-.11,.12-.11,.09-.24,.16-.36,.23-.05,.03-.11,.06-.16,.08,.12-.06,.04-.01-.04,.01-.12,.04-.23,.07-.35,.1-.22,.06-.09,.02-.03,.01-.06,0-.12,.01-.19,.01-.13,0-.26,0-.39,0-.15-.01-.02,0,.01,0-.11-.02-.21-.04-.32-.07-.07-.02-.31-.1-.28-.09s-.2-.1-.26-.13c-.31-.17-.35-.2-.58-.43-.05-.05-.23-.24-.21-.21,.07,.08-.05-.08-.05-.08-.05-.07-.09-.15-.13-.22,0,0-.08-.19-.04-.08s-.02-.09-.02-.09c0,0-.04-.21-.02-.08s-.06-.16,0-.02c.02,.05-.04,.09-.05,.13,.05-.23,.08-.07,.02-.03-.17,.11,.17-.07-.02,.02,.26-.11,.55-.18,.83-.25,.12-.03,.24-.05,.37-.08,.22-.05-.07-.01,.16-.02,.14,0,.28,0,.42,0s-.02-.01-.04-.02c.07,.01,.15,.04,.22,.05,.02,0,.19,.03,.06,.01-.12-.01,.03,0,.05,.04-.12-.25,.15,.19,.06,.06s.02,.05,.01,.05c-.03,0-.05-.2-.04-.05s0-.06,0-.07c0,.07,0,.14,0,.21-.02-.19,.03-.11,0-.01-.02,.05-.03,.1-.05,.16-.04,.14,.01-.03,.02-.05-.03,.05-.05,.1-.08,.14-.09,.12,.04-.03,.03-.04,0,.01-.21,.19,.01,.02-.05,.04-.1,.07-.16,.1-.16,.1,.14-.04-.04,.02-.06,.02-.12,.03-.18,.05,.02,0,.18-.01,.03,0-.07,0-.43-.02-.22,.02-.12-.02-.24-.05-.36-.09,.16,.05-.15-.08-.2-.12-.11-.07-.03-.01,0,0-.07-.05-.13-.12-.19-.18,.09,.1-.08-.12-.11-.17,.07,.13-.04-.12-.05-.18,0,.04,0,.16,.01,.02,0-.09,0-.08,0,.02l.03-.1c-.07-.04,.03,.22-.01,.07-.03-.09,.06,.01-.03,.05,.09-.04,.05-.12,.03-.04l-.04,.04,.09-.05s-.27,.11-.01,.02c-.01,0-.23,.02-.08,.02s-.08-.01-.09-.01c-.04,0-.23-.13-.03,0,.57,.36,1.38,.12,1.71-.45,.35-.6,.12-1.35-.45-1.71h0Z"/>
          </g>
        </g>
      </g>
    </g>
    <path class="cls-14" d="M258.28,132.34c-5.44,7.18-15.92,10.49-23.39,11.99-4.56,.91-9.22,.79-13.47-.35-1.79-.48-3.96-.99-6.36-1.39-7.81-1.29-16.26,.74-22.7,5.32-1.88,1.34-3.53,2.68-4.87,3.85-3.32,2.88-7.46,5.03-11.97,6.2-7.38,1.91-18.25,3.5-26.28-.59-13.31-6.8-13.56-23.99-9.24-30.83,4.22-6.69,30.7-15.87,53.86-21.31,.26-.07,.5-.13,.77-.19,.25-.06,.51-.12,.75-.16,23.22-5.21,51.05-8.49,57.76-4.31,6.87,4.28,14.14,19.85,5.13,31.78Z"/>
    <path class="cls-34" d="M257.51,130.55c-5.44,7.18-15.92,10.49-23.39,11.99-4.56,.91-9.22,.79-13.47-.35-1.79-.48-3.96-.99-6.36-1.39-7.81-1.29-16.26,.74-22.7,5.32-1.88,1.34-3.53,2.68-4.87,3.85-3.32,2.88-7.46,5.03-11.97,6.2-7.38,1.91-18.25,3.5-26.28-.59-13.31-6.8-13.56-23.99-9.24-30.83,4.22-6.69,30.7-15.87,53.86-21.31,.26-.07,.5-.13,.77-.19,.25-.06,.51-.12,.75-.16,23.22-5.21,51.05-8.49,57.76-4.31,6.87,4.28,14.14,19.85,5.13,31.78Z"/>
    <path class="cls-3" d="M247.67,126.47c-4.79,5.17-13.67,7.83-19.97,9.13-3.84,.79-7.74,.87-11.25,.22-1.48-.27-3.28-.55-5.27-.74-6.48-.62-13.62,1.07-19.16,4.48-1.62,1-3.05,1.98-4.21,2.84-2.88,2.12-6.41,3.75-10.22,4.71-6.24,1.58-15.38,3.06-21.95,.49-10.9-4.26-10.51-16.18-6.67-21.08,3.76-4.79,26.21-12.07,45.77-16.65,.22-.06,.43-.1,.65-.16,.21-.05,.43-.1,.64-.14,19.59-4.41,42.97-7.65,48.44-4.98,5.59,2.73,11.14,13.29,3.19,21.88Z"/>
  </g>
</svg>